<?xml version="1.0" encoding="UTF-8" standalone="no"?>
<svg
   data-name="Layer 1"
   width="774.13137"
   height="669.89848"
   viewBox="0 0 774.13137 669.89848"
   version="1.1"
   id="svg173"
   sodipodi:docname="about.svg"
   inkscape:version="1.1.1 (3bf5ae0d25, 2021-09-20)"
   xmlns:inkscape="http://www.inkscape.org/namespaces/inkscape"
   xmlns:sodipodi="http://sodipodi.sourceforge.net/DTD/sodipodi-0.dtd"
   xmlns="http://www.w3.org/2000/svg"
   xmlns:svg="http://www.w3.org/2000/svg">
  <defs
     id="defs177">
    <filter
       inkscape:collect="always"
       style="color-interpolation-filters:sRGB"
       id="filter994"
       x="-0.015095475"
       y="-1.5896024"
       width="1.0301909"
       height="4.1792049">
      <feGaussianBlur
         inkscape:collect="always"
         stdDeviation="1.6258388"
         id="feGaussianBlur996" />
    </filter>
  </defs>
  <sodipodi:namedview
     id="namedview175"
     pagecolor="#ffffff"
     bordercolor="#666666"
     borderopacity="1.0"
     inkscape:pageshadow="2"
     inkscape:pageopacity="0.0"
     inkscape:pagecheckerboard="0"
     showgrid="false"
     inkscape:zoom="0.54888245"
     inkscape:cx="281.48104"
     inkscape:cy="433.60833"
     inkscape:window-width="1366"
     inkscape:window-height="704"
     inkscape:window-x="-8"
     inkscape:window-y="-8"
     inkscape:window-maximized="1"
     inkscape:current-layer="svg173" />
  <path
     d="m 597.29608,62.1493 c -0.80858,-0.529523 -1.62645,-1.031658 -2.43502,-1.542922 a 353.39402,347.14886 0 0 0 -74.63977,-35.54198 l -6.07825,82.368282 H 475.6103 V 13.040564 c -2.42573,-0.493005 -4.87004,-0.95862 -7.31435,-1.396847 V 107.43269 H 422.50452 A 95.049215,93.369511 0 0 1 327.45531,14.063192 v -9.1e-5 c -2.45361,0.520394 -4.88862,1.077306 -7.32364,1.670738 V 107.43269 H 282.83502 L 277.04489,28.889758 A 353.96814,347.71284 0 0 0 200.8902,68.631407 c -0.40893,0.273891 -0.81787,0.556912 -1.21751,0.830804 -2.05396,1.415106 -4.08004,2.8576 -6.09683,4.318401 V 388.01627 H 303.49549 L 301.55305,361.58574 290.865,216.46893 h 215.23875 l -10.68805,145.11681 -1.94244,26.43053 H 602.17539 V 65.326496 Q 599.74962,63.710518 597.29608,62.1493 Z M 320.13169,192.50337 H 289.09917 L 283.3648,114.6269 h 36.76689 z m 148.16426,0 h -52.12051 v -1.54292 a 5.7434424,5.6419446 0 0 0 -5.75296,-5.64217 h -22.65866 a 5.741407,5.6399452 0 0 0 -5.74367,5.64217 v 1.54292 H 327.45533 V 114.6269 h 140.84062 z m 7.31435,0 V 114.6269 h 38.00299 l -5.73437,77.87647 z"
     fill="#f2f2f2"
     id="path2"
     style="stroke-width:0.921147" />
  <path
     d="m 716.67064,582.75238 0.72649,-16.04643 a 52.757361,51.825036 0 0 1 24.6078,-6.1191 c -11.81871,9.49191 -10.34172,27.78902 -18.35453,40.5534 a 31.733649,31.172854 0 0 1 -23.27064,14.40543 l -9.89028,5.94847 a 53.175654,52.235937 0 0 1 11.20807,-42.32873 51.364708,50.456994 0 0 1 9.43987,-8.61616 c 2.3687,6.13551 5.53322,12.20312 5.53322,12.20312 z"
     fill="#f2f2f2"
     id="path4"
     style="stroke-width:0.921147" />
  <path
     d="m 186.0315,565.16823 -23.86729,-7.09835 a 80.460017,79.038132 0 0 1 0.0625,-38.02877 c 9.82862,20.73267 37.91191,25.47992 54.09716,41.92 a 48.396841,47.541575 0 0 1 12.90745,39.20852 l 5.22413,16.59857 a 81.097787,79.664631 0 0 1 -59.45966,-32.21391 78.335706,76.951362 0 0 1 -9.40708,-16.94932 c 10.12272,-1.12796 20.44285,-3.43674 20.44285,-3.43674 z"
     fill="#f2f2f2"
     id="path6"
     style="stroke-width:0.921147" />
  <path
     d="m 698.0983,618.87021 a 1.8941084,1.8606359 0 0 1 -0.54835,1.29642 1.8474435,1.8147956 0 0 1 -1.31044,0.52952 h -7.47234 a 1.8523786,1.8196435 0 0 1 -1.8588,-1.82594 V 396.89032 c 0,-4.89353 -1.67291,-8.86495 -3.72687,-8.87408 H 123.22988 c -2.06326,0.009 -3.72688,3.98055 -3.73617,8.87408 v 220.61956 a 1.8646373,1.8316855 0 0 1 -1.68221,1.81681 c -1.50562,0.14608 -3.01124,0.27389 -4.50757,0.39258 -0.0372,0 -0.0744,0.009 -0.11153,0.009 -0.81786,0.073 -1.63573,0.12777 -2.4536,0.19172 h -0.009 c -0.42753,-0.75776 -0.83646,-1.53379 -1.25469,-2.30981 a 1.9403924,1.9061019 0 0 1 -0.20447,-0.84907 V 385.37775 c 0,-1.3512 0.0558,-2.71152 0.14871,-4.05359 a 52.839659,51.90588 0 0 1 0.69704,-5.49609 c 1.57068,-8.48151 5.12097,-14.2241 9.15455,-14.24236 h 567.86049 a 4.3523601,4.2754454 0 0 1 1.71009,0.35602 6.6674848,6.5496574 0 0 1 2.10973,1.45162 13.077982,12.846869 0 0 1 2.07255,2.78457 c 1.9889,3.4419 3.41088,8.5728 3.91275,14.54363 0,0.0548 0.009,0.10956 0.009,0.16434 0.13011,1.47906 0.19517,2.98541 0.18588,4.49182 l 0.13011,19.56497 0.0837,11.66778 0.25093,36.61016 0.0929,13.00071 z"
     fill="#e6e6e6"
     id="path8"
     style="stroke-width:0.921147" />
  <path
     d="m 747.51813,614.96139 -256.28086,0.28058 a 1.1066222,1.087066 0 0 1 0,-2.17412 l 256.28086,-0.28059 a 1.1066222,1.087066 0 0 1 0,2.17413 z"
     fill="#cacaca"
     id="path10"
     style="mix-blend-mode:normal;stroke-width:0.921147;filter:url(#filter994)"
     transform="matrix(2.5764991,0,0,7.3009466,-1192.0461,-3862.2492)" />
  <path
     d="m 429.41148,296.72937 h -45.39002 a 2.42181,2.3790119 0 0 0 -2.41814,2.38154 v 70.43575 h 50.23255 v -70.43575 a 2.4231112,2.3802901 0 0 0 -2.42439,-2.38154 z m -22.5423,40.02072 a 5.3849187,5.2897567 0 0 1 -5.35983,-5.26506 v -8.12415 a 5.359825,5.2651065 0 0 1 10.71965,0 v 8.12415 a 5.3849187,5.2897567 0 0 1 -5.35982,5.26506 z"
     fill="#2f2e41"
     id="path12"
     style="stroke-width:0.921147" />
  <path
     d="M 504.57326,186.80645 H 310.54865 a 6.2984589,6.1871529 0 0 0 -6.28843,6.17727 v 128.61486 a 6.2944532,6.183218 0 0 0 6.28843,6.17726 h 194.02461 a 6.2944532,6.183218 0 0 0 6.28843,-6.17726 V 192.98372 a 6.2984589,6.1871529 0 0 0 -6.28843,-6.17727 z"
     fill="#3f3d56"
     id="path14"
     style="stroke-width:0.921147" />
  <path
     d="M 502.95044,191.26703 H 312.16638 a 3.3703792,3.310818 0 0 0 -3.36303,3.31044 v 125.42705 a 3.368855,3.3093208 0 0 0 3.36303,3.3036 h 190.78406 a 3.368855,3.3093208 0 0 0 3.36303,-3.3036 V 194.5775 a 3.3703792,3.310818 0 0 0 -3.36303,-3.31047 z"
     fill="#ffffff"
     id="path16"
     style="stroke-width:0.921147" />
  <path
     d="m 381.44751,367.29367 v 6.79565 a 1.3551891,1.3312402 0 0 0 1.35244,1.3285 h 47.83931 a 1.3592226,1.3352025 0 0 0 1.35241,-1.3285 v -6.79565 z"
     fill="#3f3d56"
     id="path18"
     style="stroke-width:0.921147" />
  <path
     d="M 465.79222,377.78251 H 352.2861 a 2.0880176,2.0511182 0 0 1 -2.04323,-2.47362 l 1.7612,-8.21702 a 2.0970327,2.0599741 0 0 1 2.0429,-1.62851 h 109.98434 a 2.0970234,2.0599649 0 0 1 2.04289,1.62851 l 1.76127,8.21702 a 2.0880176,2.0511182 0 0 1 -2.04325,2.47362 z"
     fill="#2f2e41"
     id="path20"
     style="stroke-width:0.921147" />
  <rect
     x="354.85306"
     y="366.94296"
     width="3.4958756"
     height="2.0604579"
     rx="0.45372167"
     fill="#3f3d56"
     id="rect22"
     style="stroke-width:0.921147" />
  <rect
     x="361.84482"
     y="366.94296"
     width="3.4958756"
     height="2.0604579"
     rx="0.45372167"
     fill="#3f3d56"
     id="rect24"
     style="stroke-width:0.921147" />
  <rect
     x="368.83658"
     y="366.94296"
     width="3.4958756"
     height="2.0604579"
     rx="0.45372167"
     fill="#3f3d56"
     id="rect26"
     style="stroke-width:0.921147" />
  <rect
     x="375.82834"
     y="366.94296"
     width="3.4958756"
     height="2.0604579"
     rx="0.45372167"
     fill="#3f3d56"
     id="rect28"
     style="stroke-width:0.921147" />
  <rect
     x="382.8201"
     y="366.94296"
     width="3.4958756"
     height="2.0604579"
     rx="0.45372167"
     fill="#3f3d56"
     id="rect30"
     style="stroke-width:0.921147" />
  <rect
     x="389.81183"
     y="366.94296"
     width="3.4958756"
     height="2.0604579"
     rx="0.45372167"
     fill="#3f3d56"
     id="rect32"
     style="stroke-width:0.921147" />
  <rect
     x="396.80359"
     y="366.94296"
     width="3.4958756"
     height="2.0604579"
     rx="0.45372167"
     fill="#3f3d56"
     id="rect34"
     style="stroke-width:0.921147" />
  <rect
     x="403.79535"
     y="366.94296"
     width="3.4958756"
     height="2.0604579"
     rx="0.45372167"
     fill="#3f3d56"
     id="rect36"
     style="stroke-width:0.921147" />
  <rect
     x="410.78708"
     y="366.94296"
     width="3.4958756"
     height="2.0604579"
     rx="0.45372167"
     fill="#3f3d56"
     id="rect38"
     style="stroke-width:0.921147" />
  <rect
     x="417.77887"
     y="366.94296"
     width="3.4958756"
     height="2.0604579"
     rx="0.45372167"
     fill="#3f3d56"
     id="rect40"
     style="stroke-width:0.921147" />
  <rect
     x="424.77063"
     y="366.94296"
     width="3.4958756"
     height="2.0604579"
     rx="0.45372167"
     fill="#3f3d56"
     id="rect42"
     style="stroke-width:0.921147" />
  <rect
     x="431.76236"
     y="366.94296"
     width="3.4958756"
     height="2.0604579"
     rx="0.45372167"
     fill="#3f3d56"
     id="rect44"
     style="stroke-width:0.921147" />
  <rect
     x="438.75415"
     y="366.94296"
     width="3.4958756"
     height="2.0604579"
     rx="0.45372167"
     fill="#3f3d56"
     id="rect46"
     style="stroke-width:0.921147" />
  <rect
     x="445.74588"
     y="366.94296"
     width="3.4958756"
     height="2.0604579"
     rx="0.45372167"
     fill="#3f3d56"
     id="rect48"
     style="stroke-width:0.921147" />
  <rect
     x="452.73764"
     y="366.94296"
     width="3.4958756"
     height="2.0604579"
     rx="0.45372167"
     fill="#3f3d56"
     id="rect50"
     style="stroke-width:0.921147" />
  <rect
     x="459.72937"
     y="366.94296"
     width="3.4958756"
     height="2.0604579"
     rx="0.45372167"
     fill="#3f3d56"
     id="rect52"
     style="stroke-width:0.921147" />
  <rect
     x="354.77048"
     y="370.37708"
     width="3.4958756"
     height="2.0604579"
     rx="0.45372167"
     fill="#3f3d56"
     id="rect54"
     style="stroke-width:0.921147" />
  <rect
     x="361.76221"
     y="370.37708"
     width="3.4958756"
     height="2.0604579"
     rx="0.45372167"
     fill="#3f3d56"
     id="rect56"
     style="stroke-width:0.921147" />
  <rect
     x="368.75394"
     y="370.37708"
     width="3.4958756"
     height="2.0604579"
     rx="0.45372167"
     fill="#3f3d56"
     id="rect58"
     style="stroke-width:0.921147" />
  <rect
     x="375.74573"
     y="370.37708"
     width="3.4958756"
     height="2.0604579"
     rx="0.45372167"
     fill="#3f3d56"
     id="rect60"
     style="stroke-width:0.921147" />
  <rect
     x="382.73749"
     y="370.37708"
     width="3.4958756"
     height="2.0604579"
     rx="0.45372167"
     fill="#3f3d56"
     id="rect62"
     style="stroke-width:0.921147" />
  <rect
     x="389.72922"
     y="370.37708"
     width="3.4958756"
     height="2.0604579"
     rx="0.45372167"
     fill="#3f3d56"
     id="rect64"
     style="stroke-width:0.921147" />
  <rect
     x="396.72098"
     y="370.37708"
     width="3.4958756"
     height="2.0604579"
     rx="0.45372167"
     fill="#3f3d56"
     id="rect66"
     style="stroke-width:0.921147" />
  <rect
     x="403.71274"
     y="370.37708"
     width="3.4958756"
     height="2.0604579"
     rx="0.45372167"
     fill="#3f3d56"
     id="rect68"
     style="stroke-width:0.921147" />
  <rect
     x="410.7045"
     y="370.37708"
     width="3.4958756"
     height="2.0604579"
     rx="0.45372167"
     fill="#3f3d56"
     id="rect70"
     style="stroke-width:0.921147" />
  <rect
     x="417.69623"
     y="370.37708"
     width="3.4958756"
     height="2.0604579"
     rx="0.45372167"
     fill="#3f3d56"
     id="rect72"
     style="stroke-width:0.921147" />
  <rect
     x="424.68802"
     y="370.37708"
     width="3.4958756"
     height="2.0604579"
     rx="0.45372167"
     fill="#3f3d56"
     id="rect74"
     style="stroke-width:0.921147" />
  <rect
     x="431.67975"
     y="370.37708"
     width="3.4958756"
     height="2.0604579"
     rx="0.45372167"
     fill="#3f3d56"
     id="rect76"
     style="stroke-width:0.921147" />
  <rect
     x="438.67151"
     y="370.37708"
     width="3.4958756"
     height="2.0604579"
     rx="0.45372167"
     fill="#3f3d56"
     id="rect78"
     style="stroke-width:0.921147" />
  <rect
     x="445.66327"
     y="370.37708"
     width="3.4958756"
     height="2.0604579"
     rx="0.45372167"
     fill="#3f3d56"
     id="rect80"
     style="stroke-width:0.921147" />
  <rect
     x="452.65503"
     y="370.37708"
     width="3.4958756"
     height="2.0604579"
     rx="0.45372167"
     fill="#3f3d56"
     id="rect82"
     style="stroke-width:0.921147" />
  <rect
     x="459.64676"
     y="370.37708"
     width="3.4958756"
     height="2.0604579"
     rx="0.45372167"
     fill="#3f3d56"
     id="rect84"
     style="stroke-width:0.921147" />
  <rect
     x="388.33087"
     y="374.49799"
     width="27.967022"
     height="2.0604579"
     rx="0.45372167"
     fill="#3f3d56"
     id="rect86"
     style="stroke-width:0.921147" />
  <path
     d="M 493.36333,208.54924 H 314.84749 a 0.71005832,0.69751021 0 0 1 0,-1.39471 h 178.51584 a 0.71005832,0.69751021 0 0 1 0,1.39471 z"
     fill="#cacaca"
     id="path88"
     style="stroke-width:0.921147" />
  <ellipse
     cx="326.9993"
     cy="199.416"
     rx="4.1603932"
     ry="4.1779494"
     fill="#3f3d56"
     id="ellipse90"
     style="stroke-width:0.921147" />
  <ellipse
     cx="341.37155"
     cy="199.416"
     rx="4.1603932"
     ry="4.1779494"
     fill="#3f3d56"
     id="ellipse92"
     style="stroke-width:0.921147" />
  <ellipse
     cx="355.74384"
     cy="199.416"
     rx="4.1603932"
     ry="4.1779494"
     fill="#3f3d56"
     id="ellipse94"
     style="stroke-width:0.921147" />
  <path
     d="m 484.71,196.27359 h -10.20929 a 0.77318288,0.75951923 0 0 0 0,1.51873 h 10.20931 a 0.77318288,0.75951923 0 0 0 0,-1.51873 z"
     fill="#3f3d56"
     id="path96"
     style="stroke-width:0.921147" />
  <path
     d="m 484.71,199.12402 h -10.20929 a 0.77318288,0.75951923 0 0 0 0,1.51874 h 10.20931 a 0.77318288,0.75951923 0 0 0 0,-1.51874 z"
     fill="#3f3d56"
     id="path98"
     style="stroke-width:0.921147" />
  <path
     d="m 484.71,201.97071 h -10.20929 a 0.77318288,0.75951923 0 0 0 0,1.51874 h 10.20931 a 0.77318288,0.75951923 0 0 0 0,-1.51874 z"
     fill="#3f3d56"
     id="path100"
     style="stroke-width:0.921147" />
  <rect
     x="393.0253"
     y="249.28992"
     width="28.373884"
     height="5.9601974"
     rx="3.0337055"
     fill="#96a498"
     id="rect102"
     style="stroke-width:0.921147" />
  <rect
     x="378.61517"
     y="261.21033"
     width="57.194138"
     height="5.9601974"
     rx="3.0337055"
     fill="#e6e6e6"
     id="rect104"
     style="stroke-width:0.921147" />
  <rect
     x="378.61517"
     y="273.13071"
     width="57.194138"
     height="5.9601974"
     rx="3.0337055"
     fill="#e6e6e6"
     id="rect106"
     style="stroke-width:0.921147" />
  <path
     d="m 316.59066,386.74721 h -55.76374 a 7.4351657,7.3037718 0 1 0 0,14.60754 h 20.44671 v 56.60423 h 14.87033 v -56.60423 h 20.4467 a 7.4351657,7.3037718 0 1 0 0,-14.60754 z"
     fill="#3f3d56"
     id="path108"
     style="stroke-width:0.921147" />
  <path
     d="M 353.39574,489.30761 H 204.24359 a 60.22987,59.165491 0 0 1 -59.40373,-50.79384 l -5.27959,-19.07714 A 435.9582,428.25397 0 0 0 90.133748,307.22957 c -9.98851,-15.93478 -15.12957,-31.35953 -3.45254,-46.21027 q 0.14914,-0.18968 0.29333,-0.37404 c 9.36566,-11.97473 55.981582,-14.56698 71.178192,-15.07117 q 0.90058,-0.0301 1.80796,-0.0299 h 92.77121 q 0.90807,0 1.80752,0.0299 a 45.397848,44.59558 0 0 1 39.25425,24.57801 46.77761,45.950959 0 0 1 -2.6543,47.04523 c -32.58785,48.08703 -42.56524,78.23916 -32.35051,97.76555 9.88073,18.8871 40.16869,28.54374 95.31752,30.3884 14.82042,0.49574 21.62206,11.83211 21.66971,22.15472 0.0463,10.05605 -6.49306,21.15883 -20.96041,21.77222 q -0.70517,0.0294 -1.41994,0.0294 z"
     fill="#3f3d56"
     id="path110"
     style="stroke-width:0.921147" />
  <path
     d="m 229.58129,619.40596 h 55.76374 a 7.435169,7.303775 0 0 0 0,-14.60755 h -20.4467 V 481.54726 h -14.87034 v 123.25115 h -20.4467 a 7.435169,7.303775 0 1 0 0,14.60755 z"
     fill="#3f3d56"
     id="path112"
     style="stroke-width:0.921147" />
  <path
     d="m 225.12781,250.11907 1.16892,6.97784 c 0.55299,3.38348 2.5555,27.28484 1.07195,30.1364 -0.13075,-5.32398 -10.22336,-13.69457 -16.76276,-11.78334 l -10.26269,2.2399 -6.36957,1.39214 -5.18424,1.11662 -15.06466,3.23307 c -0.0263,-0.17178 -0.0454,-0.35427 -0.0717,-0.52605 -0.0356,-0.21655 -0.0712,-0.43303 -0.11592,-0.64769 a 13.095659,12.864234 0 0 0 -1.51426,-3.94503 10.019267,9.8422068 0 0 1 -1.43358,4.64006 0.80752405,0.79325353 0 0 0 -0.0614,0.1149 11.834925,11.625779 0 0 1 -0.88397,1.22139 0.20161381,0.1980509 0 0 0 -0.04,0.036 c 0,0 -3.09534,-48.46966 -2.77109,-48.91692 0.23734,-0.31799 0.47655,-0.62698 0.72673,-0.9289 0.24832,-0.31081 0.4894,-0.61089 0.74864,-0.91463 a 0.40451019,0.39736171 0 0 0 0.0834,-0.1006 33.455894,32.864663 0 0 1 2.30392,-2.4201 c 0.23775,-0.22484 0.48461,-0.45152 0.73143,-0.67821 a 34.333327,33.726591 0 0 1 13.17731,-7.46656 c 0.55335,-0.16714 1.12865,-0.32002 1.71301,-0.4748 0.57715,-0.14394 1.1653,-0.28081 1.75711,-0.39977 l 0.20034,-0.0403 c 0.28227,-0.0567 0.5755,-0.10636 0.85964,-0.15413 0.35689,-0.0624 0.71576,-0.11595 1.06736,-0.15864 a 34.608298,33.996702 0 0 1 13.67559,0.75503 c 0.009,-0.002 0.011,0.007 0.0201,0.005 a 35.264238,34.64105 0 0 1 10.47942,4.58453 c 5.561,3.60689 7.72562,9.48996 9.26284,16.09558 0.53892,2.26807 0.99251,4.62771 1.48811,7.00694 z"
     fill="#2f2e41"
     id="path114"
     style="stroke-width:0.921147" />
  <polygon
     points="292.405,570.768 269.963,611.271 280.299,616.886 307.661,579.054 "
     fill="#ffb6b6"
     id="polygon116"
     transform="matrix(0.92939571,0,0,0.91297148,29.150383,11.643763)" />
  <path
     d="m 284.67687,557.40975 17.43918,5.36431 -2.77572,7.17687 11.95833,17.04951 a 4.881874,4.7956018 0 0 1 -5.75379,7.20425 l -20.30161,-7.57675 -0.75367,-8.40502 -4.11191,6.58914 -7.6545,-2.85669 z"
     fill="#2f2e41"
     id="path118"
     style="stroke-width:0.921147" />
  <path
     d="m 334.46572,415.23197 a 10.794336,10.603579 0 0 1 -13.32713,-9.64244 l -81.93688,-28.95616 15.03723,-12.85431 77.76973,30.41737 a 10.85287,10.661078 0 0 1 2.45705,21.03554 z"
     fill="#ffb6b6"
     id="path120"
     style="stroke-width:0.921147" />
  <path
     d="m 216.31212,304.8987 c 0,0 -13.80006,0.29873 -15.02697,15.77524 -1.22692,15.47651 28.88462,53.7575 33.54994,60.07033 4.66531,6.31282 56.48565,14.08281 56.48565,14.08281 l 17.61576,-12.56249 c -18.50997,-11.7819 -35.40272,-20.81585 -46.73957,-20.40948 z"
     fill="#96a498"
     id="path122"
     style="stroke-width:0.921147" />
  <path
     d="m 199.38711,373.18683 3.36272,14.19318 c 0,0 0.0331,13.08735 2.39252,15.50043 2.343,2.40184 53.86349,-2.42066 53.86349,-2.42066 0,0 -5.4625,-21.08936 -5.38983,-37.04693 z"
     fill="#ffb6b6"
     id="path124"
     style="stroke-width:0.921147" />
  <path
     d="m 308.2261,554.73396 -18.58791,-10.04269 c -0.35354,-23.75988 14.19479,-55.91354 31.45032,-89.59211 -38.5913,6.51979 -74.99864,8.6084 -106.4894,0.72136 A 20.354946,19.995235 0 0 1 200.0422,431.6654 q 0.18386,-0.75074 0.4252,-1.48554 c 3.76885,-11.29571 -4.68195,-18.37629 3.09079,-30.80005 20.44336,-6.85849 39.86372,-8.79526 57.62253,-2.73891 l 11.12717,24.1676 55.15267,-7.0108 a 20.336851,19.977459 0 0 1 22.62483,17.61457 q 0.11117,0.88218 0.14526,1.77155 c -11.15195,51.3571 -23.65658,97.56792 -42.00455,121.55014 z"
     fill="#2f2e41"
     id="path126"
     style="stroke-width:0.921147" />
  <ellipse
     cx="141.60016"
     cy="286.85373"
     transform="matrix(0.98039104,-0.19706196,0.20392347,0.97898683,0,0)"
     fill="#ffb6b6"
     id="circle128"
     rx="23.037519"
     ry="22.662861"
     style="stroke-width:0.921158" />
  <path
     d="m 191.90045,283.32945 21.24692,-1.23235 a 4.3133719,4.2371463 0 0 1 4.24168,2.61402 l 6.00431,14.29863 24.95442,20.26074 c 0,0 9.88013,12.35068 9.90312,28.30129 0.0229,15.95062 3.50539,52.87 3.50539,52.87 0,0 -14.41957,-19.93807 -23.31967,-14.63514 -1.51416,0.90218 -2.04676,2.74713 -3.63281,3.67948 -0.79113,0.46508 -2.61888,0.013 -3.41783,0.47889 -12.26418,7.15174 -25.05445,14.13871 -26.24954,12.9136 -2.34644,-2.40538 -5.19286,-14.69666 -5.19286,-14.69666 l -19.44871,-70.19581 a 26.466058,25.998351 0 0 1 3.76346,-21.87641 c 1.35872,-1.87918 2.78231,-3.2772 4.10527,-3.50842 2.97049,-0.6213 1.39042,-7.16126 3.53685,-9.27186 z"
     fill="#96a498"
     id="path130"
     style="stroke-width:0.921147" />
  <polygon
     points="343.13,605.789 369.583,643.84 379.233,637.131 357.372,595.887 "
     fill="#ffb6b6"
     id="polygon132"
     transform="matrix(0.92939571,0,0,0.91297148,29.150383,11.643763)" />
  <path
     d="m 373.99485,574.18584 -14.05579,12.34178 c -22.34991,-24.46368 -39.2459,-58.77325 -53.56427,-97.73607 -37.51583,-10.79334 -65.80772,-28.2002 -90.50628,-48.86817 -8.37881,-6.9646 -14.65986,-15.91177 -7.51387,-24.3957 q 0.50111,-0.59491 1.0465,-1.15061 c 8.43735,-8.51803 29.8342,-6.89476 42.36612,-14.69852 l 27.99467,29.39438 -1.76089,7.88042 52.58261,17.497 a 20.309322,19.950417 0 0 1 12.39402,25.57886 q -0.29541,0.84019 -0.66314,1.65361 z"
     fill="#2f2e41"
     id="path134"
     style="stroke-width:0.921147" />
  <path
     d="m 367.41016,596.96809 14.35681,-11.10623 4.46097,6.30393 21.07684,-0.063 a 4.881874,4.7956018 0 0 1 2.80174,8.73341 l -17.83224,12.17682 -7.48622,-4.13667 3.21247,7.05506 -6.72345,4.59116 z"
     fill="#2f2e41"
     id="path136"
     style="stroke-width:0.921147" />
  <path
     d="m 223.27523,460.23477 a 10.794383,10.603625 0 0 1 -4.82383,-15.55356 l -48.10021,-71.30455 19.87629,-1.48424 43.86975,70.03097 a 10.85287,10.661078 0 0 1 -10.822,18.31138 z"
     fill="#ffb6b6"
     id="path138"
     style="stroke-width:0.921147" />
  <path
     d="m 195.61917,302.41655 c 0,0 -11.24865,-7.85874 -21.64441,3.83271 -10.39575,11.69145 -9.52772,60.06136 -9.6254,67.8617 -0.0306,2.44257 3.55998,7.71311 8.50687,13.80102 2.22087,2.73312 4.71511,5.631 7.27778,8.51163 1.48299,1.66702 0.20517,5.13679 1.69429,6.75704 1.48093,1.61139 5.72896,1.37364 7.13761,2.86919 6.6862,7.09874 12.11802,12.50235 12.11802,12.50235 l 21.76667,0.26293 c 0.24556,-15.89498 -10.83537,-30.08303 -25.07117,-43.79566 z"
     fill="#96a498"
     id="path140"
     style="stroke-width:0.921147" />
  <path
     d="m 226.13334,241.92134 c -0.85297,0.41376 -1.68052,0.81307 -2.49357,1.19081 a 77.269457,75.903956 0 0 1 -10.08868,4.03147 12.700769,12.476321 0 0 0 -2.58149,-4.14989 10.093414,9.9150437 0 0 1 -0.42783,4.95977 28.535106,28.030835 0 0 1 -15.83479,-0.60059 c 3.34483,6.08386 5.81608,18.90385 5.63626,30.33697 -0.0784,6.04511 -0.91136,11.70132 -2.73027,15.76655 l -2.3373,-6.9853 a 44.292267,43.509536 0 0 0 -1.302,-7.38911 c -1.56724,-6.79525 -3.03043,-2.25178 -5.18424,1.11662 l -15.06467,3.23307 c -0.0263,-0.17178 -0.0454,-0.35428 -0.0717,-0.52605 -0.0356,-0.21655 -0.0712,-0.43303 -0.11593,-0.64769 a 13.095659,12.864234 0 0 0 -1.51425,-3.94503 10.019267,9.8422068 0 0 1 -1.43358,4.64006 0.80752405,0.79325353 0 0 0 -0.0614,0.11489 11.834925,11.625779 0 0 1 -0.88397,1.2214 0.20161381,0.1980509 0 0 0 -0.04,0.036 c -9.72604,1.27848 -16.54417,-47.99126 -2.76924,-48.90802 0.40045,-0.0267 0.47656,-0.62692 0.72488,-0.9378 0.24832,-0.31081 0.4894,-0.61089 0.74864,-0.91463 a 0.40451019,0.39736171 0 0 0 0.0834,-0.1006 c 0.73625,-0.83763 1.49814,-1.64305 2.30392,-2.4201 0.23775,-0.22484 0.48461,-0.45152 0.73143,-0.67821 a 34.849718,34.233856 0 0 1 13.17918,-7.4576 c 0.55334,-0.16714 1.12678,-0.32898 1.71114,-0.48376 0.57715,-0.14394 1.1653,-0.28081 1.75711,-0.39977 l 0.20034,-0.0403 c 0.28227,-0.0567 0.5755,-0.10636 0.85964,-0.15413 0.35689,-0.0624 0.71576,-0.11595 1.06736,-0.15864 a 8.7300183,8.5757419 0 0 1 3.28274,2.82541 l 9.62425,-1.93453 q 0.38247,-0.0769 0.77046,-0.12691 l 0.0182,-0.004 c 12.01553,-1.9772 19.74115,7.51276 22.2359,19.48931 z"
     fill="#2f2e41"
     id="path142"
     style="stroke-width:0.921147" />
  <path
     d="m 173.67885,233.21058 c -2.06075,1.46112 -4.22875,2.96637 -6.74334,3.32843 -2.51459,0.36205 -5.45847,-0.83206 -6.15438,-3.23321 -0.85088,-2.93587 1.8479,-5.60904 4.2735,-7.51706 l 7.69158,-6.05026 a 18.598026,18.269363 0 0 1 4.71585,-2.99519 6.2848898,6.1738235 0 0 1 5.44101,0.17869 5.8431573,5.7398973 0 0 1 2.56801,4.99722 10.861736,10.669788 0 0 1 -1.90492,5.47396 19.599599,19.253236 0 0 1 -12.72445,8.49679"
     fill="#2f2e41"
     id="path144"
     style="stroke-width:0.921147" />
  <path
     d="m 232.01565,390.39909 h -55.76374 a 7.435169,7.303775 0 1 0 0,14.60755 h 20.44671 v 56.60423 h 14.87033 v -56.60423 h 20.4467 a 7.435169,7.303775 0 0 0 0,-14.60755 z"
     fill="#3f3d56"
     id="path146"
     style="stroke-width:0.921147" />
  <polygon
     points="608.676,498.102 567.621,535.776 577.388,546.42 623.092,513.812 "
     fill="#a0616a"
     id="polygon150"
     transform="matrix(0.92939571,0,0,0.91297148,29.150383,11.643763)" />
  <path
     d="m 575.48313,514.54494 v -0.009 l -0.9201,-9.70489 -0.41823,-0.19172 -2.44431,-1.14122 -11.5338,-5.35914 -0.24164,-0.25563 -2.3142,-2.48328 -12.81636,11.55821 17.36111,18.5881 11.90561,12.74509 0.39964,-0.36519 a 16.832797,16.535329 0 0 0 1.02234,-23.3812 z"
     fill="#2f2e41"
     id="path152"
     style="stroke-width:0.921147" />
  <polygon
     points="533.213,588.644 517.018,641.96 530.84,646.159 553.614,594.841 "
     fill="#a0616a"
     id="polygon154"
     transform="matrix(0.92939571,0,0,0.91297148,29.150383,11.643763)" />
  <path
     d="m 542.92643,608.22493 a 16.688815,16.393891 0 0 0 -9.96312,-8.03415 l -5.82731,-7.8972 -0.45541,0.0365 -15.40009,1.38771 -0.34387,-0.10047 -3.27147,-0.97688 -5.05592,16.35132 41.42311,12.36164 0.158,-0.5204 a 16.77865,16.482139 0 0 0 -1.26392,-12.60809 z"
     fill="#2f2e41"
     id="path156"
     style="stroke-width:0.921147" />
  <path
     id="b2eb929e-713e-4b71-a146-193a455bcc79-177"
     data-name="Path 17"
     d="m 615.59668,352.42633 c 0,0 82.0204,77.79195 30.16848,101.87118 h -16.02643 c 0,0 -4.81613,-16.80793 -15.84197,-30.98194 -1.51416,-1.94651 -7.18663,-1.55114 -8.76193,-3.44812 -9.61854,-11.58296 -20.04624,-21.53061 -27.24802,-21.13565 l 1.72285,53.74937 2.78819,19.1724 c 1.46401,9.9111 -39.85463,96.44899 -39.85463,96.44899 l -25.97035,-10.02644 c 0,0 27.05781,-71.27679 27.37477,-81.55236 L 522.26421,363.53939 Z"
     fill="#2f2e41"
     style="stroke-width:0.921147" />
  <path
     d="m 622.43622,356.26308 a 4.8867626,4.800404 0 0 1 -1.59856,1.42424 11.293134,11.093562 0 0 1 -3.35512,1.22338 c -18.46709,4.1175 -78.79417,12.65378 -94.45448,8.58193 -1.92385,-0.493 -3.17854,-1.18686 -3.58747,-2.09983 -1.31045,-2.88499 -1.14316,-15.07316 -0.37176,-29.79026 0.13941,-2.75718 3.2343,-5.74259 3.42018,-8.62758 0.13011,-2.16375 -2.64878,-4.19967 -2.50008,-6.39993 1.02234,-14.88144 2.34208,-30.04589 3.22501,-39.6321 0.55763,-6.16255 0.93869,-10.01529 0.93869,-10.01529 l -9.52631,-59.00535 0.44611,-0.72125 0.50187,-0.24645 30.71653,-14.93622 1.67291,-4.19967 a 6.6156245,6.4987136 0 0 1 6.12472,-4.1175 l 20.23295,-0.0822 a 6.5936071,6.4770853 0 0 1 5.3812,2.68408 l 5.48343,7.45897 36.24643,22.82429 -0.13941,0.41997 -17.00794,50.84338 -0.0836,3.9623 v 0.009 l -0.63199,31.8627 1.75656,4.31836 -1.97962,7.08465 c 0,0 0.91081,8.28061 5.79014,14.43408 4.42392,5.58739 10.05606,11.41215 12.6026,16.14134 v 0.009 c 1.41265,2.61112 1.88665,4.87527 0.69705,6.59166 z"
     fill="#96a498"
     id="path159"
     style="stroke-width:0.921147" />
  <path
     id="e9cec503-1de8-4692-84d1-4d2e854ea0bd-178"
     data-name="Path 18"
     d="m 649.70334,449.67644 -4.38406,5.44171 c 0,0 -40.32034,27.71019 -41.70489,30.29981 l -6.37217,5.92317 -15.41822,-16.19007 8.01807,-9.87225 a 62.942544,61.830226 0 0 1 24.145,-18.15859 v 0 l 12.28823,-10.70948 z"
     fill="#2f2e41"
     style="stroke-width:0.921147" />
  <path
     d="m 624.08333,371.90279 -7.34248,-69.81519 -1.93801,-28.73368 20.55141,-3.65043 c 0,0 -0.81432,20.54543 1.87793,32.13737 2.65681,11.43879 0.35246,68.52914 0.18829,70.05569 a 9.9988294,9.8221306 0 1 1 -13.33714,0.006 z"
     fill="#a0616a"
     id="path162"
     style="stroke-width:0.921147" />
  <path
     d="m 644.13061,316.55519 -26.41574,5.37102 -2.3098,-9.04532 -2.69265,-2.80612 -5.37993,-27.68436 -7.7187,-16.21712 2.00643,-55.45745 19.6044,10.21382 0.0239,0.0181 c 2.99845,3.19736 5.06506,7.77357 8.50118,12.36552 10.82746,14.46946 12.02824,49.629 11.70061,68.88755 -0.006,0.31609 0.31823,0.64972 0.70702,1.0008 a 10.869673,10.677585 0 0 1 1.97328,13.35355 z"
     fill="#96a498"
     id="path164"
     style="stroke-width:0.921147" />
  <path
     d="m 504.46591,374.6417 7.34249,-69.81521 1.93801,-28.73365 -20.55141,-3.65044 c 0,0 0.81432,20.54543 -1.87794,32.13738 -2.6568,11.43879 -0.35245,68.52913 -0.18828,70.05568 a 9.9988201,9.8221215 0 1 0 13.33713,0.006 z"
     fill="#a0616a"
     id="path166"
     style="stroke-width:0.921147" />
  <path
     d="m 528.93898,268.90998 -5.72508,12.03296 -1.9982,4.19054 -5.3812,27.68124 -2.68596,2.80283 -2.31419,9.04754 -1.08739,-0.21911 -19.61025,-3.98969 -5.71579,-1.15947 a 10.865324,10.673312 0 0 1 1.97032,-13.35677 c 0.39035,-0.34693 0.71559,-0.68473 0.70634,-1.00427 -0.32529,-19.25457 0.87363,-54.4131 11.70109,-68.8837 3.43877,-4.59224 5.50203,-9.16623 8.50397,-12.36163 0.009,-0.009 0.009,-0.0183 0.0185,-0.0183 l 7.3051,-11.74994 0.44611,-0.72125 0.50187,-0.24646 z"
     fill="#96a498"
     id="path168"
     style="stroke-width:0.921147" />
  <ellipse
     id="e944ea38-edcc-43c9-bf24-dbaf21228ba4"
     data-name="Ellipse 5"
     cx="563.62103"
     cy="155.51588"
     fill="#a0616a"
     rx="26.920532"
     ry="26.444794"
     style="stroke-width:0.921147" />
  <path
     d="m 593.88516,143.91502 c -0.0929,-4.51008 -0.6134,-10.28006 -3.82911,-14.88144 -2.71384,-3.871 -8.18798,-6.93858 -13.29036,-5.40479 a 5.5257501,5.4280993 0 0 0 -2.75101,-5.00308 c -1.93315,-1.15948 -4.25663,-1.36946 -6.3106,-1.56118 -5.17673,-0.47475 -10.53935,-0.96775 -15.78114,0.009 -5.88307,1.09556 -10.69734,4.07185 -13.19742,8.17109 l -0.0558,0.12782 -0.51117,2.4285 a 2.3466405,2.3051708 0 0 1 -1.16174,1.55205 2.3060631,2.2653105 0 0 1 -1.96107,0.13695 2.1287344,2.0911155 0 0 0 -2.85325,2.26421 l 0.13941,0.96775 -1.47774,-0.27389 a 2.1223866,2.0848799 0 0 0 -2.38855,2.78457 l 0.40894,1.10469 a 2.2748633,2.234662 0 0 0 -1.62644,0.70299 2.0792905,2.0425454 0 0 0 -0.27882,2.39198 19.342806,19.000981 0 0 0 6.82176,6.73773 16.081743,15.797547 0 0 0 4.06146,1.70726 q 0.44611,0.12325 0.9201,0.21911 a 95.78551,94.092794 0 0 0 34.71293,1.02253 19.66356,19.316066 0 0 0 -0.7714,6.90207 c 0.37176,2.91237 2.10973,5.31349 4.43322,6.1169 a 9.2947378,9.1304817 0 0 0 1.61715,0.38345 9.9761335,9.7998358 0 0 1 1.55209,0.37432 4.5200788,4.4402003 0 0 1 1.31974,7.59592 c 0,0 2.43502,1.98115 2.74172,1.88073 a 6.2579094,6.14732 0 0 0 2.86254,-2.50155 c 4.63775,-6.55518 6.87756,-15.28318 6.65452,-25.95582 z"
     fill="#2f2e41"
     id="path171"
     style="stroke-width:0.921147" />
</svg>
