<?xml version="1.0" encoding="UTF-8" standalone="no"?>
<svg
   data-name="Layer 1"
   width="698.28353"
   height="608.57869"
   viewBox="0 0 698.28353 608.57869"
   version="1.1"
   id="svg172"
   sodipodi:docname="home.svg"
   inkscape:version="1.1.1 (3bf5ae0d25, 2021-09-20)"
   xmlns:inkscape="http://www.inkscape.org/namespaces/inkscape"
   xmlns:sodipodi="http://sodipodi.sourceforge.net/DTD/sodipodi-0.dtd"
   xmlns="http://www.w3.org/2000/svg"
   xmlns:svg="http://www.w3.org/2000/svg">
  <defs
     id="defs176" />
  <sodipodi:namedview
     id="namedview174"
     pagecolor="#ffffff"
     bordercolor="#666666"
     borderopacity="1.0"
     inkscape:pageshadow="2"
     inkscape:pageopacity="0.0"
     inkscape:pagecheckerboard="0"
     showgrid="false"
     inkscape:zoom="0.42722496"
     inkscape:cx="382.70236"
     inkscape:cy="365.1472"
     inkscape:window-width="1366"
     inkscape:window-height="704"
     inkscape:window-x="-8"
     inkscape:window-y="-8"
     inkscape:window-maximized="1"
     inkscape:current-layer="svg172" />
  <ellipse
     style="mix-blend-mode:normal;fill:#e6e6e6;fill-opacity:1;fill-rule:evenodd;stroke-width:1.01655"
     id="path1133"
     cx="493.59241"
     cy="588.07074"
     rx="158.87415"
     ry="19.048048" />
  <g
     id="g988"
     transform="matrix(-0.98596235,0,0,0.95744603,688.67059,-6.3405641e-7)">
    <path
       d="m 577.64736,743.9862 a 1.2164,1.2164 0 0 0 0.88158,-2.10832 l -0.0833,-0.33136 0.0331,-0.0795 a 3.26655,3.26655 0 0 1 6.02554,0.0224 c 0.98551,2.37356 2.24024,4.75117 2.54918,7.26082 a 9.66368,9.66368 0 0 1 -0.16964,3.32354 38.74392,38.74392 0 0 0 3.52438,-16.09157 37.39507,37.39507 0 0 0 -0.232,-4.17178 q -0.19217,-1.70334 -0.53318,-3.38243 a 39.19271,39.19271 0 0 0 -7.77227,-16.61089 10.4303,10.4303 0 0 1 -4.33795,-4.50066 7.95618,7.95618 0 0 1 -0.72357,-2.17417 9.81874,9.81874 0 0 0 0.637,-3.3859 c 0.29431,-0.44659 0.82106,-0.66859 1.14248,-1.10437 1.59857,-2.16733 3.801,-1.78891 4.95075,1.15632 2.45615,1.23962 2.47992,3.29545 0.97284,5.27269 -0.95881,1.25793 -1.09055,2.96005 -1.93184,4.30676 0.0866,0.1108 0.17658,0.21813 0.26313,0.32893 a 39.44636,39.44636 0 0 1 4.11715,6.52255 16.39792,16.39792 0 0 1 0.979,-7.61655 c 0.937,-2.26055 2.69342,-4.16438 4.24012,-6.11862 a 3.36575,3.36575 0 0 1 5.99479,1.65271 l 0.009,0.0864 q -0.34461,0.1944 -0.67465,0.41269 a 1.65,1.65 0 0 0 0.66523,3.00262 l 0.0336,0.005 a 16.41681,16.41681 0 0 1 -0.43275,2.45462 c 1.98421,7.67347 -2.29956,10.46831 -8.41622,10.59386 -0.135,0.0692 -0.26661,0.13846 -0.40163,0.20427 a 40.26319,40.26319 0 0 1 2.16725,10.19917 38.18792,38.18792 0 0 1 -0.0277,6.1659 l 0.0104,-0.0727 a 10.09082,10.09082 0 0 1 3.44475,-5.82663 c 2.65092,-2.17763 6.39617,-2.97954 9.25605,-4.72993 a 1.89376,1.89376 0 0 1 2.90049,1.84232 l -0.0117,0.0764 a 11.0834,11.0834 0 0 0 -1.24286,0.59891 q -0.34461,0.19444 -0.67465,0.41269 a 1.65,1.65 0 0 0 0.66523,3.00265 l 0.0337,0.005 0.0692,0.0104 a 16.43129,16.43129 0 0 1 -3.02234,4.7326 c -1.24068,6.69864 -6.56942,7.33419 -12.2695,5.38348 h -0.003 a 40.25033,40.25033 0 0 1 -2.70387,7.89347 h -9.65908 c -0.0347,-0.10732 -0.0658,-0.21812 -0.097,-0.32546 a 10.97505,10.97505 0 0 0 2.67273,-0.1592 c -0.71665,-0.87938 -1.43328,-1.76569 -2.14994,-2.645 a 0.60048,0.60048 0 0 1 -0.045,-0.0519 c -0.36351,-0.45 -0.73049,-0.89666 -1.094,-1.34671 l -1.9e-4,-5.5e-4 a 16.075,16.075 0 0 1 0.471,-4.09507 z"
       transform="translate(-250.85824,-145.71065)"
       fill="#f2f2f2"
       id="path2" />
    <path
       d="m 336.98262,743.9862 a 1.2164,1.2164 0 0 1 -0.88157,-2.10832 l 0.0833,-0.33136 -0.0331,-0.0795 a 3.26656,3.26656 0 0 0 -6.02555,0.0224 c -0.98551,2.37356 -2.24023,4.75117 -2.54918,7.26082 a 9.66393,9.66393 0 0 0 0.16964,3.32354 38.74391,38.74391 0 0 1 -3.52437,-16.09157 37.39507,37.39507 0 0 1 0.232,-4.17178 q 0.19215,-1.70334 0.53317,-3.38243 a 39.19285,39.19285 0 0 1 7.77228,-16.61089 10.43034,10.43034 0 0 0 4.33794,-4.50066 7.95618,7.95618 0 0 0 0.72357,-2.17417 9.819,9.819 0 0 1 -0.637,-3.3859 c -0.2943,-0.44659 -0.82105,-0.66859 -1.14248,-1.10437 -1.59857,-2.16733 -3.801,-1.78891 -4.95074,1.15632 -2.45615,1.23962 -2.47992,3.29545 -0.97284,5.27269 0.95881,1.25793 1.09055,2.96005 1.93184,4.30676 -0.0866,0.1108 -0.17659,0.21813 -0.26313,0.32893 a 39.4457,39.4457 0 0 0 -4.11715,6.52255 16.39805,16.39805 0 0 0 -0.979,-7.61655 c -0.93706,-2.26055 -2.69343,-4.16438 -4.24012,-6.11862 a 3.36576,3.36576 0 0 0 -5.9948,1.65271 l -0.009,0.0864 q 0.34459,0.1944 0.67464,0.41269 a 1.65,1.65 0 0 1 -0.66523,3.00262 l -0.0336,0.005 a 16.41681,16.41681 0 0 0 0.43275,2.45462 c -1.98422,7.67347 2.29956,10.46831 8.41622,10.59386 0.135,0.0692 0.2666,0.13846 0.40163,0.20427 a 40.262,40.262 0 0 0 -2.16725,10.19917 38.18677,38.18677 0 0 0 0.0277,6.1659 l -0.0104,-0.0727 a 10.09082,10.09082 0 0 0 -3.44475,-5.82663 c -2.65092,-2.17763 -6.39617,-2.97954 -9.256,-4.72993 a 1.89376,1.89376 0 0 0 -2.90049,1.84232 l 0.0117,0.0764 a 11.08424,11.08424 0 0 1 1.24286,0.59891 q 0.3446,0.19444 0.67465,0.41269 a 1.65,1.65 0 0 1 -0.66524,3.00265 l -0.0337,0.005 -0.0692,0.0104 a 16.43108,16.43108 0 0 0 3.02234,4.7326 c 1.24068,6.69864 6.56941,7.33419 12.2695,5.38348 h 0.003 a 40.251,40.251 0 0 0 2.70387,7.89347 h 9.65909 c 0.0346,-0.10732 0.0658,-0.21812 0.097,-0.32546 a 10.97508,10.97508 0 0 1 -2.67273,-0.1592 c 0.71666,-0.87938 1.43329,-1.76569 2.14994,-2.645 a 0.59875,0.59875 0 0 0 0.045,-0.0519 c 0.36351,-0.45 0.73049,-0.89666 1.094,-1.34671 l 2e-4,-5.5e-4 a 16.07543,16.07543 0 0 0 -0.471,-4.09507 z"
       transform="translate(-250.85824,-145.71065)"
       fill="#f2f2f2"
       id="path4" />
    <path
       d="m 482.96471,224.97808 c 1.95416,-3.93451 5.0777,-7.20117 6.98822,-11.1571 1.91059,-3.95587 2.28211,-9.25055 -0.90088,-12.27844 -2.70269,-2.571 -6.936,-2.607 -10.16809,-4.46924 -8.23425,-4.74439 -8.22467,-19.81372 -17.6383,-21.11579 -4.57758,-0.63317 -8.71942,2.79969 -11.48615,6.501 -2.76678,3.70136 -4.97131,8.02039 -8.80841,10.59552 -4.34363,2.9151 -9.95929,3.04187 -14.78265,5.06665 -9.24787,3.88208 -14.09632,13.8645 -18.15027,23.03839 -2.61157,5.90985 -5.283,12.28412 -4.07129,18.63068 -2.63385,1.63885 -1.46,6.04675 1.16907,7.69318 2.62907,1.64643 5.93066,1.60986 8.94964,2.323 6.345,1.4989 11.54041,6.54975 14.00336,12.58619 1.91968,4.70489 2.31219,9.87066 2.68262,14.93859 q 0.964,13.19084 1.928,26.3816 c 0.286,3.91241 0.66113,8.07019 3.04248,11.1875 2.38141,3.11731 7.53833,4.42358 10.21533,1.55615 2.55835,-2.74036 1.40607,-7.07874 1.35425,-10.82733 -0.0518,-3.7486 3.33685,-8.41645 6.532,-6.45539 l 1.12677,-2.55664 a 40.33337,40.33337 0 0 0 26.60254,-34.6817 c 0.81643,-12.44437 -4.13585,-25.78757 1.41176,-36.95682 z"
       transform="translate(-250.85824,-145.71065)"
       fill="#e6e6e6"
       id="path6" />
    <path
       d="m 490.42248,303.88989 a 5.07894,5.07894 0 0 0 -2.9137,-8.74274 l 0.0121,0.42236 a 8.73331,8.73331 0 0 1 -4.53051,1.19068 13.72034,13.72034 0 0 0 -4.6615,0.73834 3.92894,3.92894 0 0 0 -2.58515,3.61511 3.81561,3.81561 0 0 0 2.05744,2.8653 11.27063,11.27063 0 0 0 3.49878,1.06256 c 3.13397,0.5896 6.80208,1.03577 9.12256,-1.15161 z"
       transform="translate(-250.85824,-145.71065)"
       fill="#e6e6e6"
       id="path8" />
    <path
       d="m 551.53936,225.1864 a 11.54039,11.54039 0 0 0 3.27344,-3.38983 3.93566,3.93566 0 0 0 -0.25525,-4.44037 5.273,5.273 0 0 0 -3.568,-1.28894 27.75671,27.75671 0 0 0 -10.515,1.23993 q 5.22592,4.6299 10.45178,9.25988 z"
       transform="translate(-250.85824,-145.71065)"
       fill="#e6e6e6"
       id="path10" />
    <path
       d="m 534.11626,233.21411 c 1.40821,1.55426 0.95929,3.96521 0.56067,6.02435 -0.39862,2.05908 -0.4494,4.63214 1.32166,5.75549 1.535,0.97364 3.68957,0.17914 4.81225,-1.25049 a 11.07934,11.07934 0 0 0 1.78021,-5.09185 35.58342,35.58342 0 0 0 0.74317,-8.03723 12.39179,12.39179 0 0 0 -2.72943,-7.4599 8.78433,8.78433 0 0 0 -9.95728,-2.3263 l 1.61872,-0.0798 a 15.80164,15.80164 0 0 0 -2.63337,5.0531 5.36683,5.36683 0 0 0 1.33051,5.28424 c 0.96027,0.83563 2.29822,1.18506 3.15289,2.12842 z"
       transform="translate(-250.85824,-145.71065)"
       fill="#e6e6e6"
       id="path12" />
    <path
       d="m 613.53612,207.14636 0.2873,-0.88629 a 6.067,6.067 0 0 0 -2.72925,7.134 6.63008,6.63008 0 0 0 2.44195,-6.24771 z"
       transform="translate(-250.85824,-145.71065)"
       fill="#e6e6e6"
       id="path14" />
    <path
       d="m 597.89092,219.832 a 11.27379,11.27379 0 0 0 5.63416,-8.433 6.20231,6.20231 0 0 0 -0.36457,-3.22064 3.32835,3.32835 0 0 0 -2.424,-2.00159 l -0.65552,1.03174 c -0.94012,-0.809 -2.519,0.023 -2.91449,1.19861 a 6.41856,6.41856 0 0 0 0.305,3.65039 4.81091,4.81091 0 0 1 -0.0574,3.62085 13.02076,13.02076 0 0 1 -1.774,1.86377 1.857,1.857 0 0 0 -0.33887,2.33539 c 0.61689,0.70463 1.77088,0.40891 2.58973,-0.0455 z"
       transform="translate(-250.85824,-145.71065)"
       fill="#e6e6e6"
       id="path16" />
    <path
       d="m 591.22063,214.06848 a 6.13592,6.13592 0 0 0 0.76349,-3.31067 l -1.43371,-0.44959 a 6.12235,6.12235 0 0 0 -2.36829,1.71314 1.86583,1.86583 0 1 0 3.03851,2.04712 z"
       transform="translate(-250.85824,-145.71065)"
       fill="#e6e6e6"
       id="path18" />
    <path
       d="m 661.28649,206.814 c 0.12976,0.10852 0.25848,0.22015 0.38824,0.32971 0.11414,-0.024 0.22272,-0.0671 0.33936,-0.0813 z"
       transform="translate(-250.85824,-145.71065)"
       fill="#e6e6e6"
       id="path20" />
    <path
       d="m 658.98913,219.39459 q 1.97415,-1.597 3.94824,-3.194 a 6.584,6.584 0 0 0 1.75451,-1.84418 4.46036,4.46036 0 0 0 -0.318,-4.29474 11.81241,11.81241 0 0 0 -2.6991,-2.918 4.88077,4.88077 0 0 0 -3.725,5.304 c 0.23773,1.50952 1.18573,3.12378 0.41192,4.44153 -0.30126,0.51312 -0.81958,0.86242 -1.16693,1.34558 -0.34735,0.48309 -0.46014,1.25256 0.0172,1.60785 0.52994,0.39443 1.26346,-0.0325 1.77714,-0.44804 z"
       transform="translate(-250.85824,-145.71065)"
       fill="#e6e6e6"
       id="path22" />
    <path
       d="m 661.86754,225.912 a 3.41784,3.41784 0 0 0 2.64313,-1.04034 23.33842,23.33842 0 0 0 4.56867,-5.01941 q -4.44205,1.40707 -8.88416,2.814 l 0.92316,1.07966 c -0.82001,0.53521 -0.21259,1.98187 0.7492,2.16609 z"
       transform="translate(-250.85824,-145.71065)"
       fill="#e6e6e6"
       id="path24" />
    <path
       d="m 670.16759,232.00738 a 2.26952,2.26952 0 0 0 2.34375,1.43109 3.38982,3.38982 0 0 0 2.41632,-1.54675 4.50178,4.50178 0 0 0 -3.53936,-7.02466 l 0.81756,1.24915 c 0.20831,2.1322 -2.69006,3.8504 -2.03827,5.89117 z"
       transform="translate(-250.85824,-145.71065)"
       fill="#e6e6e6"
       id="path26" />
    <path
       d="m 727.68041,255.35992 a 4.61809,4.61809 0 0 0 5.54175,-0.0132 4.94283,4.94283 0 0 0 0.29547,-7.24305 l -1.51239,0.84443 a 3.85089,3.85089 0 0 0 -5.244,1.04162 4.19834,4.19834 0 0 0 0.91917,5.37018 z"
       transform="translate(-250.85824,-145.71065)"
       fill="#e6e6e6"
       id="path28" />
    <path
       d="m 745.26775,257.351 a 4.48037,4.48037 0 0 0 3.07276,-3.12189 l -2.94031,-0.38641 a 6.5103,6.5103 0 0 0 -2.77881,-1.21387 2.23162,2.23162 0 0 0 -2.42114,1.42651 2.41541,2.41541 0 0 0 0.82434,2.20765 4.48034,4.48034 0 0 0 4.24316,1.08801 z"
       transform="translate(-250.85824,-145.71065)"
       fill="#e6e6e6"
       id="path30" />
    <path
       d="m 733.12554,263.22949 a 2.53437,2.53437 0 0 0 1.69446,2.12372 2.74555,2.74555 0 0 0 3.04883,-0.47217 1.68314,1.68314 0 0 0 -0.61091,-2.66913 l -2.205,-0.401 c -0.85192,-0.44116 -1.94124,0.45923 -1.92738,1.41858 z"
       transform="translate(-250.85824,-145.71065)"
       fill="#e6e6e6"
       id="path32" />
    <path
       d="m 605.18261,278.73388 -1.70661,-1.55841 a 5.58655,5.58655 0 0 0 1.70661,1.55841 z"
       transform="translate(-250.85824,-145.71065)"
       fill="#e6e6e6"
       id="path34" />
    <path
       d="m 592.14721,269.55743 c 1.0506,4.87933 6.30609,8.85437 11.07708,7.38818 l 0.25171,0.22986 c -1.519,-2.07892 -1.77636,-5.155 -1.42157,-7.83008 a 27.57368,27.57368 0 0 1 15.90557,-21.19275 6.56346,6.56346 0 0 0 2.985,-1.94476 c 0.67993,-0.99432 0.42621,-2.6994 -0.74518,-2.98028 a 2.78923,2.78923 0 0 0 -1.81879,0.421 l -8.86615,4.36377 c -4.47821,2.204 -9.04565,4.4712 -12.56311,8.01233 -3.51746,3.54113 -5.85516,8.6533 -4.80456,13.53273 z"
       transform="translate(-250.85824,-145.71065)"
       fill="#e6e6e6"
       id="path36" />
    <path
       d="m 449.02593,437.3399 a 108.87053,108.87053 0 0 0 -26.88086,-14.04755 c -5.88324,-2.09155 -12.20477,-3.68713 -18.33472,-2.49951 a 21.82368,21.82368 0 0 0 -15.43994,12.3252 22.85724,22.85724 0 0 0 0.747,19.81164 c 2.82672,5.29718 7.7218,9.51587 9.35834,15.29273 1.10327,3.89459 0.58063,8.04107 0.0496,12.05395 q -1.62791,12.30057 -3.25574,24.60108 c -0.988,7.46612 -1.95086,15.23571 0.413,22.38635 2.36389,7.15063 9.10925,13.45386 16.60211,12.6944 l 1.4848,-0.1117 c -4.95648,-3.37048 -6.34576,-10.34808 -4.86993,-16.15747 1.47589,-5.80933 5.22143,-10.73559 8.8786,-15.4845 q 16.27908,-21.13851 32.5581,-42.277 c 4.39093,-5.7016 9.03522,-12.749 6.69379,-19.55384 -1.33104,-3.86819 -4.67837,-6.65182 -8.00411,-9.03378 z"
       transform="translate(-250.85824,-145.71065)"
       fill="#e6e6e6"
       id="path38" />
    <path
       d="m 375.06481,401.71484 c -1.09912,-0.37256 -2.26007,0.45526 -2.90631,1.41919 a 19.48082,19.48082 0 0 1 -1.83374,2.94781 c -1.69061,1.74256 -4.77155,1.39637 -6.59491,-0.20684 -1.82337,-1.60315 -2.6134,-4.08265 -2.96729,-6.48468 -0.42456,-2.88215 -0.24127,-6.09748 1.66089,-8.304 1.95819,-2.27148 5.1767,-2.88092 8.13831,-3.35272 3.05926,-0.48737 6.48663,-0.89386 8.99292,0.92682 1.57867,1.14679 2.49878,2.99737 3.96118,4.28918 1.4624,1.29175 4.06372,1.78119 5.16431,0.16992 a 3.96505,3.96505 0 0 0 -0.0529,-3.67267 8.99,8.99 0 0 1 -1.09168,-3.63678 c 0.0737,-1.77111 1.496,-3.17865 2.95112,-4.191 1.45512,-1.01235 3.09851,-1.88587 4.05316,-3.37946 1.17431,-1.83722 1.04968,-4.2038 1.77813,-6.259 1.76313,-4.97406 8.05549,-7.18683 9.88843,-12.13562 a 4.67859,4.67859 0 0 0 0.13965,-3.2815 c -0.76721,-1.97107 -2.84088,-1.58422 -2.968,-3.99365 -0.1217,-2.30469 1.80066,-4.56463 3.754,-5.52716 2.69312,-1.32709 5.83289,-1.21942 8.83417,-1.30011 3.00122,-0.0806 6.23468,-0.47961 8.43731,-2.51984 a 7.2724,7.2724 0 0 0 -0.77337,-10.81823 c -1.64124,-1.13349 -3.71607,-1.52765 -5.313,-2.72272 -1.98907,-1.48853 -2.9306,-3.96759 -4.4798,-5.90973 a 22.73076,22.73076 0 0 0 -4.38745,-3.88464 q -1.994,-1.4795 -3.98791,-2.95911 c -2.40314,-1.78314 -4.90357,-3.61163 -7.82782,-4.247 -2.92426,-0.63525 -6.40656,0.26367 -7.871,2.87335 a 8.87849,8.87849 0 0 0 -0.92413,3.73676 53.81207,53.81207 0 0 0 0.38111,9.15387 q 0.362,3.66431 0.724,7.32867 c 0.21631,2.19 -0.0159,5.07727 -2.14184,5.64563 -4.71619,1.26093 -3.12476,-5.7124 -4.17072,-7.84875 -1.60107,-3.27 -8.95715,-4.84027 -12.10186,-6.20306 -1.964,-0.85108 -4.03669,-1.79059 -5.2226,-3.57251 -1.476,-2.21778 -1.173,-5.23633 -0.0156,-7.63575 1.15741,-2.39947 3.04327,-4.35247 4.75647,-6.39257 1.74639,-2.07959 3.3366,-4.28455 4.925,-6.48719 q 2.76334,-3.83193 5.52668,-7.66382 c 2.36273,-3.27636 4.84655,-7.275 3.50445,-11.085 a 2.98226,2.98226 0 0 0 -5.45746,0.65808 c -0.58825,2.05683 0.981,4.683 -0.52014,6.20728 a 2.81418,2.81418 0 0 1 -3.61126,-0.0676 8.20294,8.20294 0 0 1 -2.15839,-3.26385 c -1.81873,-4.04169 -3.59064,-8.1084 -5.45752,-12.128 -0.59015,-1.27069 -1.20612,-3.44647 -2.99463,-3.2323 -1.55267,0.186 -2.39117,2.44861 -2.33722,3.76227 0.0785,1.91125 1.13489,3.619 1.94226,5.35315 0.80737,1.73415 1.372,3.81652 0.48554,5.51159 -1.1225,2.14618 -3.96521,2.6283 -6.38617,2.55738 a 29.944,29.944 0 0 1 -13.0719,-3.44916 q -0.1582,3.36429 -0.31647,6.72857 -4.82007,-2.01745 -9.64014,-4.035 -0.93612,-0.39184 -1.87231,-0.78369 c -2.71063,-1.13458 -5.42462,-2.27045 -8.21509,-3.19147 -1.58417,-0.52289 -3.19037,-0.97565 -4.796,-1.42828 q -1.46411,-0.41263 -2.9281,-0.82532 a 15.36277,15.36277 0 0 0 -6.00885,-0.85718 c -2.14325,0.26923 -4.05493,1.42029 -6.03711,2.28089 -4.42236,1.91974 -10.14233,-0.0115 -14.88147,-0.0457 a 19.89643,19.89643 0 0 0 -33.42706,0.92615 39.813,39.813 0 0 0 -2.22168,4.467 q -0.96452,2.16156 -1.92908,4.32306 c -0.9433,2.11395 -1.90741,4.341 -1.722,6.64844 0.18541,2.30744 1.95428,4.66461 4.269,4.64367 -5.45831,2.47113 -6.59412,11.11823 -1.95911,14.91516 1.28345,1.05139 2.8573,1.739 4.01227,2.93006 a 6.29162,6.29162 0 0 1 -4.72668,10.6679 15.323,15.323 0 0 0 18.21423,-5.70526 c 1.98163,-3.1026 2.8429,-6.9787 5.53864,-9.4859 3.57006,-3.32043 9.467,-3.06274 13.58459,-0.4519 4.11759,2.61084 6.72241,7.05627 8.51416,11.59064 2.348,5.94213 3.85071,12.73223 8.853,16.7069 2.41876,1.92188 5.48187,3.00275 7.61975,5.23285 3.04449,3.17591 3.57123,7.96918 3.50256,12.36817 -0.0687,4.39892 -0.54242,8.963 1.06,13.0603 1.60242,4.0973 6.19629,7.46716 10.31574,5.92267 a 16.408,16.408 0 0 0 6.86889,19.16492 q -1.12573,-6.98245 -2.25146,-13.965 c 3.7406,1.053 6.165,4.68121 7.56518,8.30621 1.40015,3.62488 2.14,7.54517 4.1695,10.859 3.19592,5.21826 8.98327,7.46674 14.8706,7.447 6.35993,-0.0214 8.77454,-3.05365 12.96576,-7.51953 a 6.83987,6.83987 0 0 0 1.85962,-2.79211 2.34922,2.34922 0 0 0 -1.22343,-2.82816 z"
       transform="translate(-250.85824,-145.71065)"
       fill="#e6e6e6"
       id="path40" />
    <path
       d="m 393.07354,401.48315 q -5.33221,-0.83808 -10.66455,-1.67621 2.79537,1.68054 5.5907,3.361 a 20.22092,20.22092 0 0 0 5.02087,2.419 6.81959,6.81959 0 0 0 5.40161,-0.5686 l -0.455,-0.86982 c -0.71694,-1.81259 -2.96797,-2.3627 -4.89363,-2.66537 z"
       transform="translate(-250.85824,-145.71065)"
       fill="#e6e6e6"
       id="path42" />
    <path
       d="m 390.65819,421.24316 0.0246,-0.0616 a 2.08714,2.08714 0 0 0 -2.11957,-0.9826 7.74858,7.74858 0 0 1 -2.47931,0.0403 3.51734,3.51734 0 0 1 -2.13165,-2.42291 c -0.35333,-1.06311 -0.45788,-2.2005 -0.86029,-3.246 a 4.76425,4.76425 0 0 0 -3.84985,-3.14038 3.3273,3.3273 0 0 0 -3.57868,3.00354 5.55733,5.55733 0 0 0 0.82984,2.52441 q 0.57513,1.10632 1.15033,2.21271 a 14.874,14.874 0 0 0 1.11212,1.903 7.43193,7.43193 0 0 0 11.90246,0.1695 z"
       transform="translate(-250.85824,-145.71065)"
       fill="#e6e6e6"
       id="path44" />
    <path
       d="m 369.8969,232.06823 c 2.70691,1.59583 6.09662,2.69568 7.38275,5.56269 l 0.742,0.23968 q -1.214,1.50852 -2.428,3.017 c -1.00018,1.2428 -2.05188,2.62756 -2.0285,4.22265 0.0322,2.19678 2.14538,3.85407 4.28051,4.372 a 9.38065,9.38065 0 0 0 10.84479,-6.39209 c 0.25391,-0.92608 0.3587,-1.88659 0.58142,-2.82061 a 22.94132,22.94132 0 0 1 2.90582,-6.2428 q 10.7818,-18.139 21.56366,-36.278 c 0.89515,-1.506 1.81794,-3.30755 1.14478,-4.925 a 3.86913,3.86913 0 0 0 -3.82031,-2.05011 11.3482,11.3482 0 0 0 -4.34888,1.46258 7.40613,7.40613 0 0 0 -5.7934,-3.71429 21.87066,21.87066 0 0 0 -7.10986,0.61926 43.77435,43.77435 0 0 0 -14.91687,5.12439 c -2.52795,1.278 -5.31,2.85626 -6.0434,5.59235 -0.90222,3.3656 2.00531,6.79571 5.35279,7.76293 3.34747,0.96729 6.92053,0.155 10.30853,-0.65917 a 7.80046,7.80046 0 0 1 -13.03863,7.36 c -2.42853,-2.36474 -3.618,-6.46979 -6.95227,-7.08008 -3.32367,-0.60833 -5.96558,2.93665 -6.6991,6.235 a 17.71762,17.71762 0 0 0 8.07217,18.59162 z"
       transform="translate(-250.85824,-145.71065)"
       fill="#e6e6e6"
       id="path46" />
    <path
       d="m 411.5852,290.25616 a 63.74646,63.74646 0 0 0 -6.27118,-12.869 38.45057,38.45057 0 0 0 -7.1283,-8.59009 27.542,27.542 0 0 0 -8.62146,-5.05035 c -3.06506,-1.10846 -6.47742,-1.65595 -9.57611,-0.64533 -3.09863,1.01069 -5.7348,3.89173 -5.672,7.15046 0.0695,3.60315 3.22205,6.42114 6.50769,7.90167 3.28564,1.48053 6.94062,2.12488 10.04047,3.96283 a 15.04933,15.04933 0 0 1 7.228,12.14941 l 0.7807,1.291 a 15.6037,15.6037 0 0 0 -4.87036,2.65167 5.29679,5.29679 0 0 0 -1.84967,4.97748 c 0.54162,2.18188 2.76947,3.434 4.784,4.4317 q 5.58353,2.76535 11.16706,5.53076 c -1.89527,-5.65155 4.31,-10.91058 4.65319,-16.86157 a 15.589,15.589 0 0 0 -1.17203,-6.03064 z"
       transform="translate(-250.85824,-145.71065)"
       fill="#e6e6e6"
       id="path48" />
    <path
       d="m 317.98778,274.99725 c 2.25806,1.75354 5.72986,0.93329 7.79847,-1.04016 2.0686,-1.97351 3.07611,-4.78186 4.01568,-7.48206 a 28.886,28.886 0 0 0 0.0966,8.04383 9.74366,9.74366 0 0 0 4.23926,6.58953 11.4238,11.4238 0 0 0 3.26281,1.18787 27.46849,27.46849 0 0 0 15.937,-1.13861 l 0.0456,-1.73779 c -2.5531,0.29126 -4.48511,-2.50892 -4.65363,-5.073 -0.16858,-2.56409 0.762,-5.07868 0.84381,-7.647 0.0818,-2.56832 -1.156,-5.56909 -3.68469,-6.02606 a 4.88838,4.88838 0 0 1 -6.217,6.70728 c -2.92694,-1.18994 -3.99023,-4.75574 -6.25214,-6.96186 a 9.48651,9.48651 0 0 0 -10.41027,-1.46423 12.91094,12.91094 0 0 0 -6.69171,8.50971 c -0.68692,2.6383 -0.48307,5.86037 1.67025,7.53255 z"
       transform="translate(-250.85824,-145.71065)"
       fill="#e6e6e6"
       id="path50" />
    <path
       d="m 387.67693,256.697 0.1048,-0.17011 c -0.63043,-1.82031 -2.58435,-2.88763 -4.49158,-3.15851 a 29.18668,29.18668 0 0 0 -5.76312,0.19049 8.35606,8.35606 0 0 1 -5.52637,-1.21722 c -1.31286,-0.98145 -2.06079,-2.52557 -3.11029,-3.78467 -1.04956,-1.25909 -2.74817,-2.29449 -4.27276,-1.69244 -1.65058,0.65179 -2.09089,2.96533 -1.28992,4.54889 a 8.04181,8.04181 0 0 0 4.04516,3.30169 31.20222,31.20222 0 0 0 20.30408,1.98188 z"
       transform="translate(-250.85824,-145.71065)"
       fill="#e6e6e6"
       id="path52" />
    <path
       d="m 365.98528,262.15325 a 2.53494,2.53494 0 0 0 2.82428,4.20527 l 0.55689,0.54968 c 0.7406,-1.32623 1.046,-3.103 0.0989,-4.29059 a 2.63056,2.63056 0 0 0 -3.4801,-0.46436 z"
       transform="translate(-250.85824,-145.71065)"
       fill="#e6e6e6"
       id="path54" />
    <path
       d="m 359.46886,266.91119 a 2.3473,2.3473 0 0 0 -1.464,-2.215 2.24724,2.24724 0 0 0 -2.60919,1.93091 4.48356,4.48356 0 0 0 1.17444,3.37408 3.09386,3.09386 0 0 0 2.14813,1.34968 c 0.87268,0.0286 1.76251,-0.884 1.40863,-1.68226 l -1.33252,-0.026 a 6.88124,6.88124 0 0 0 0.67451,-2.73141 z"
       transform="translate(-250.85824,-145.71065)"
       fill="#e6e6e6"
       id="path56" />
    <path
       d="m 333.40978,253.26434 q 0.73407,0.5949 1.4682,1.18994 a 17.60232,17.60232 0 0 0 2.73468,1.94171 7.49164,7.49164 0 0 0 5.57251,0.68213 5.73623,5.73623 0 0 0 3.922,-3.87024 c 0.58514,-2.20489 -0.36933,-4.49432 -1.30341,-6.5755 a 3.99,3.99 0 0 0 -1.02624,-1.5647 1.368,1.368 0 0 0 -1.73084,-0.068 1.71222,1.71222 0 0 0 -0.27862,1.64447 4.4837,4.4837 0 0 1 0.2702,1.71393 c -0.0931,0.5755 -0.69714,1.11944 -1.22925,0.88141 l -0.0847,1.959 c -2.541,-1.28625 -3.88482,-4.70764 -6.7127,-5.045 a 3.49,3.49 0 0 0 -3.48529,5.12188 7.01119,7.01119 0 0 0 1.88348,1.98897 z"
       transform="translate(-250.85824,-145.71065)"
       fill="#e6e6e6"
       id="path58" />
    <path
       d="m 327.35772,244.80731 a 3.86986,3.86986 0 0 0 1.64972,-3.68665 2.3791,2.3791 0 0 0 -3.2298,-1.72363 3.83071,3.83071 0 0 0 -1.43933,2.2088 q -1.00452,2.83356 -2.0091,5.66718 l 1.12555,-0.819 a 11.38384,11.38384 0 0 0 3.90296,-1.6467 z"
       transform="translate(-250.85824,-145.71065)"
       fill="#e6e6e6"
       id="path60" />
    <path
       d="m 340.40081,233.21429 a 2.21452,2.21452 0 0 0 -0.68414,-3.3252 l -1.40735,-0.13159 a 2.11207,2.11207 0 1 0 2.09149,3.45679 z"
       transform="translate(-250.85824,-145.71065)"
       fill="#e6e6e6"
       id="path62" />
    <path
       d="m 353.34862,235.38665 c 1.3133,0.62836 2.97577,1.22711 4.11829,0.32483 a 2.597,2.597 0 0 0 0.79541,-2.47528 6.29379,6.29379 0 0 0 -1.16132,-2.446 23.49991,23.49991 0 0 0 -6.53515,-6.31037 l -0.635,0.825 c -0.8869,2.303 -1.74323,4.99152 -0.50617,7.127 0.8341,1.43956 2.42309,2.23674 3.92394,2.95482 z"
       transform="translate(-250.85824,-145.71065)"
       fill="#e6e6e6"
       id="path64" />
    <path
       d="m 363.13231,237.43627 2.45582,1.11084 a 2.30293,2.30293 0 0 0 -2.45582,-1.11084 z"
       transform="translate(-250.85824,-145.71065)"
       fill="#e6e6e6"
       id="path66" />
    <path
       d="m 356.51433,245.16314 -1.16046,0.38233 c -0.98675,1.62158 -0.55865,3.69506 -0.0997,5.53692 0.29016,1.16443 0.916,2.59717 2.11481,2.54425 1.16656,-0.0515 1.68274,-1.466 1.90662,-2.612 a 7.88393,7.88393 0 0 0 0.11029,-3.81976 2.70652,2.70652 0 0 0 -2.87159,-2.03174 z"
       transform="translate(-250.85824,-145.71065)"
       fill="#e6e6e6"
       id="path68" />
    <path
       d="m 338.00847,239.7055 0.85865,0.34576 a 0.92412,0.92412 0 1 0 -0.85865,-0.34576 z"
       transform="translate(-250.85824,-145.71065)"
       fill="#e6e6e6"
       id="path70" />
    <path
       d="m 381.29693,305.3623 a 2.60951,2.60951 0 0 0 -2.38819,3.51752 c 0.84326,1.81579 3.7472,1.82361 5.03778,0.293 a 3.95175,3.95175 0 0 0 -1.01922,-5.72248 z"
       transform="translate(-250.85824,-145.71065)"
       fill="#e6e6e6"
       id="path72" />
    <path
       d="m 423.1223,348.37329 a 2.61313,2.61313 0 0 0 -1.83178,3.26855 l 2.41076,0.16742 q 1.22462,-0.61469 2.44922,-1.22943 a 2.61316,2.61316 0 0 0 -3.0282,-2.20654 z"
       transform="translate(-250.85824,-145.71065)"
       fill="#e6e6e6"
       id="path74" />
    <path
       d="m 413.32293,351.35559 a 4.98264,4.98264 0 0 0 -2.08856,4.36114 3.98563,3.98563 0 0 0 3.11883,3.52429 3.3318,3.3318 0 0 0 3.76532,-2.55371 c 0.40772,-2.49371 -2.27222,-4.32 -3.23535,-6.656 z"
       transform="translate(-250.85824,-145.71065)"
       fill="#e6e6e6"
       id="path76" />
    <path
       d="m 506.95867,334.88665 c 0.25452,1.872 -1.43219,3.51184 -1.49487,5.40009 -0.0744,2.24035 2.36425,3.98334 4.595,3.76349 a 7.26583,7.26583 0 0 0 5.21954,-3.83393 l 0.0482,-0.21 q -1.62982,-1.84213 -3.25964,-3.68432 c -1.33435,-1.50818 -2.74891,-3.22492 -2.6966,-5.238 0.0258,-0.99237 0.41693,-1.95392 0.39478,-2.94641 a 7.13933,7.13933 0 0 0 -0.47248,-2.08246 c -0.29425,-0.878 -0.69482,-1.86743 -1.57214,-2.16376 -1.09814,-0.371 -2.2063,0.60218 -2.73053,1.636 a 6.47212,6.47212 0 0 0 0.19141,6.09546 c 0.63437,1.0775 1.60885,2.02495 1.77731,3.26384 z"
       transform="translate(-250.85824,-145.71065)"
       fill="#e6e6e6"
       id="path78" />
    <path
       d="m 496.71215,341.473 a 1.87206,1.87206 0 0 0 1.56128,0.1001 8.17012,8.17012 0 0 0 2.747,-0.99817 2.774,2.774 0 0 0 1.34362,-2.45325 3.20931,3.20931 0 0 0 -2.61383,-2.42712 2.81063,2.81063 0 0 0 -2.615,0.39947 c -0.80963,0.75946 -0.71289,2.04846 -0.55438,3.14716 l -0.17065,0.28625 c -0.15227,0.67861 -0.24974,1.52224 0.30196,1.94556 z"
       transform="translate(-250.85824,-145.71065)"
       fill="#e6e6e6"
       id="path80" />
    <path
       d="m 667.738,421.47607 q -0.35258,-0.87671 -0.7052,-1.75336 c -0.32218,0.79376 -0.20249,1.60565 0.7052,1.75336 z"
       transform="translate(-250.85824,-145.71065)"
       fill="#e6e6e6"
       id="path82" />
    <path
       d="m 808.815,298.549 c -3.01581,-3.2721 -4.86267,-5.15857 -6.76727,-9.21442 a 14.93093,14.93093 0 0 0 -11.29742,-8.48395 c -6.2566,-1.03076 -12.65033,0.60144 -18.98291,0.27436 -10.14344,-0.52393 -19.28974,-5.96436 -29.00354,-8.93183 a 121.36633,121.36633 0 0 0 -16.57538,-3.41852 q -4.8383,-0.7652 -9.67676,-1.53033 c -10.57324,-1.67212 -21.21387,-3.34912 -31.91632,-3.12708 -3.08612,0.0641 -7.38532,-0.86352 -7.138,-3.94036 0.30713,-3.82148 7.18249,-3.31977 8.505,-6.91828 0.81818,-2.226 -1.14007,-4.56317 -3.28747,-5.5697 -2.1474,-1.00659 -4.6261,-1.30921 -6.575,-2.66065 -1.94891,-1.35131 -3.01678,-4.484 -1.22552,-6.03845 q -7.44726,3.81766 -14.89429,7.63544 c -4.12768,2.116 -8.7395,4.869 -9.46856,9.44983 a 10.94989,10.94989 0 0 0 -6.14777,4.271 c -2.7926,0.0145 -4.9873,2.69568 -5.44794,5.45014 -0.46069,2.75445 0.37665,5.54217 1.20447,8.20941 -1.01294,-1.94031 -2.089,-3.95465 -3.87445,-5.22076 -1.78552,-1.26606 -4.50348,-1.50721 -6.02557,0.0656 -1.562,1.61395 -1.19678,4.32184 -0.0918,6.27728 1.1051,1.95545 2.80243,3.53375 3.84515,5.5232 3.25653,6.21344 -2.64428,14.96118 -9.62506,14.2691 q 0.70221,-9.62412 1.4046,-19.24817 a 12.88138,12.88138 0 0 0 -0.48474,-5.88745 c -0.76147,-1.83667 -2.71142,-3.34515 -4.65185,-2.91144 -3.48889,0.77985 -3.19086,5.89063 -1.73938,9.15778 1.45129,3.26721 2.89813,7.81073 -0.0645,9.81158 -1.91327,1.29212 -4.50732,0.49414 -6.57281,-0.53729 -2.06555,-1.03131 -4.27521,-2.30231 -6.533,-1.8205 -2.25788,0.48188 -3.67774,3.93323 -1.68286,5.0954 q -4.96244,-0.86233 -9.92475,-1.72473 a 7.05958,7.05958 0 0 1 -8.83355,5.6358 q -0.48715,-2.01882 -0.97431,-4.03778 -0.7262,-0.20214 -1.45221,-0.40436 c 1.51959,0.42316 -0.85809,6.83173 -2.98944,11.72724 -2.86535,-0.336 -7.053,-0.40076 -7.5307,-1.2218 -2.288,-3.93189 -2.01636,-13.29755 -5.99152,-15.50965 q -2.99039,-1.664 -6.13293,-3.03253 a 14.38468,14.38468 0 0 0 -3.46027,-1.13611 c -2.44146,-0.38476 -4.90258,0.37244 -7.25824,1.12055 -2.78344,0.88391 -5.63177,1.80114 -7.93646,3.595 a 24.82774,24.82774 0 0 0 -4.99939,5.94519 q -6.82579,10.1022 -13.65161,20.20428 a 21.65077,21.65077 0 0 0 -3.16174,5.92511 7.74158,7.74158 0 0 0 0.7204,6.41346 4.96285,4.96285 0 0 0 5.81237,1.98608 c 1.31891,-0.57092 2.6399,-1.86487 3.94684,-1.26721 0.98981,0.45257 1.23731,1.75354 1.13349,2.837 a 7.57833,7.57833 0 0 0 -0.0581,3.23261 c 0.59509,1.68652 2.88409,2.27337 4.51685,1.54352 a 6.98156,6.98156 0 0 0 3.31817,-4.04 c 1.57343,-4.03473 1.41284,-8.49915 1.80457,-12.81208 0.3916,-4.31292 1.57055,-8.9259 4.971,-11.6076 1.01782,-0.80273 2.5133,-1.38141 3.56109,-0.618 a 2.54567,2.54567 0 0 1 0.626,2.89007 11.31894,11.31894 0 0 1 -1.6969,2.66559 14.61319,14.61319 0 0 0 -2.40393,11.40564 l 0.69495,0.43006 c 2.65136,-0.68769 6.19976,0.54364 9.71984,1.72448 a 12.65142,12.65142 0 0 0 -6.4284,4.42157 c -4.06873,5.70868 -7.01367,11.111 -15.06262,11.04315 -1.90943,-0.016 -3.80262,-0.39361 -5.7121,-0.39776 a 7.46652,7.46652 0 0 0 -5.297,1.7641 c -1.44769,1.41748 -1.89514,3.57556 -3.1336,5.17908 -1.6283,2.10821 -4.35028,2.96563 -6.83606,3.92321 -1.81672,0.69983 -3.73163,1.64368 -4.56665,3.40241 a 8.4288,8.4288 0 0 0 -0.34992,4.50647 c 0.27985,2.66345 0.77539,5.6925 3.03485,7.13025 a 7.18817,7.18817 0 0 0 5.53168,0.468 c 2.3501,-0.57171 4.6488,-1.64837 7.06213,-1.48755 3.78962,0.25251 6.91028,3.89014 6.94861,7.68793 0.0195,1.92236 -0.54144,4.12738 0.73279,5.567 1.1972,1.35266 3.57208,1.11157 4.8125,-0.20172 a 5.54547,5.54547 0 0 0 1.04523,-5.09034 16.3735,16.3735 0 0 0 -2.39765,-4.83056 5.63743,5.63743 0 0 1 6.48706,2.999 c 0.84174,1.87006 0.56971,4.02783 0.83814,6.06091 0.26861,2.03308 1.50641,4.29273 3.55377,4.40991 a 2.86847,2.86847 0 0 0 2.88452,-2.264 20.619,20.619 0 0 0 -0.16833,-3.0871 3.95449,3.95449 0 0 1 3.99383,-3.68012 5.63552,5.63552 0 0 0 1.38129,7.03772 c 1.55823,1.20575 3.61755,1.47516 5.55871,1.81214 1.94116,0.33698 4.01148,0.86975 5.26435,2.39038 2.08667,2.53265 -0.46655,3.67346 -0.86408,5.8183 -0.48785,2.63324 1.71155,6.52185 2.55628,9.041 q 5.82366,8.14683 11.64721,16.29358 a 19.71321,19.71321 0 0 0 3.0445,3.60913 c 3.8324,3.29169 10.15051,2.96686 13.82574,-0.4992 a 11.85327,11.85327 0 0 0 2.01282,-13.93909 c -2.27124,-4.13446 -6.77154,-6.695 -8.994,-10.85584 a 23.7238,23.7238 0 0 0 13.023,5.35572 65.66633,65.66633 0 0 1 23.66009,9.92254 32.99275,32.99275 0 0 0 8.13623,20.2511 29.16064,29.16064 0 0 1 8.46112,-16.80268 c 2.991,-2.91693 7.0777,-5.26867 11.18127,-4.48425 4.10352,0.78436 7.21674,6.01709 4.73475,9.37781 q 3.11947,0.232 6.239,0.464 1.399,3.47826 2.79816,6.95672 a 2.40892,2.40892 0 0 1 2.35,-1.63135 c 1.947,0.29395 3.31244,2.10541 5.16437,2.77424 3.491,1.26074 7.22284,-2.23163 7.67426,-5.91565 0.45153,-3.68409 -1.30121,-7.24085 -3.00385,-10.53888 a 19.6706,19.6706 0 0 0 20.21265,-29.84619 50.0912,50.0912 0 0 1 14.07123,-10.3595 c 4.86877,-2.4054 10.19451,-4.0564 14.4497,-7.43054 4.25513,-3.37415 7.23944,-9.23316 5.19269,-14.26325 -1.446,-3.5534 -5.07227,-5.96509 -6.15765,-9.64471 -1.571,-5.32654 3.20153,-10.836 8.5932,-12.16681 5.3916,-1.33075 11.022,0.30493 16.33307,1.92785 -0.816,-5.465 5.51843,-10.58819 10.692,-8.64764 q 3.25021,-1.31607 6.50037,-2.63214 c -2.51172,5.53778 -7.95435,9.061 -11.95636,13.6391 -4.00208,4.57794 -6.3855,12.03308 -2.2049,16.44867 q 8.98838,-8.14673 17.97675,-16.29346 9.402,-8.52164 18.80377,-17.04321 -0.449,-1.31872 -0.89783,-2.63751 c 5.93017,-2.25237 12.3167,-4.11547 17.98877,-6.91272 z"
       transform="translate(-250.85824,-145.71065)"
       fill="#e6e6e6"
       id="path84" />
    <path
       d="m 497.572,371.64526 a 2.06347,2.06347 0 0 0 0.0119,2.3717 1.816,1.816 0 0 0 2.31348,0.0311 5.29522,5.29522 0 0 0 1.46552,-2.02875 3.30109,3.30109 0 0 0 3.3565,1.75788 8.25524,8.25524 0 0 0 3.70319,-1.54431 8.118,8.118 0 0 0 2.2489,-1.951 3.21152,3.21152 0 0 0 0.56506,-2.82733 4.87108,4.87108 0 0 0 -1.4613,-1.88642 q -2.37844,-2.197 -4.75684,-4.394 l -0.53729,-0.161 a 3.03041,3.03041 0 0 0 -4.3717,-0.0466 c -0.98456,1.10223 -0.989,2.74884 -0.8385,4.21911 0.1505,1.47027 0.38464,3.03663 -0.27,4.36176 -0.3752,0.7596 -1.01092,1.36092 -1.42892,2.09786 z"
       transform="translate(-250.85824,-145.71065)"
       fill="#e6e6e6"
       id="path86" />
    <path
       d="m 589.56725,421.67559 a 33.06336,33.06336 0 0 1 -25.12494,-25.25366 c -0.58429,-2.91113 -0.84912,-6.0918 -2.78576,-8.34241 -1.87476,-2.17883 -4.93787,-2.96521 -7.81226,-2.965 -2.87433,2.4e-4 -5.70795,0.66174 -8.57672,0.84064 -5.01593,0.3128 -10.33057,-1.01215 -13.91742,-4.53235 -1.69855,-1.66693 -2.98444,-3.78394 -4.9682,-5.0987 -2.66614,-1.767 -6.20081,-1.76568 -9.23865,-0.76446 -3.38367,1.11517 -6.09192,4.16668 -9.79175,3.7467 -3.84784,-0.43677 -8.30743,-1.79687 -9.816,3.26972 -0.43438,1.4588 -0.28644,3.05883 -0.83648,4.47815 -0.84778,2.18725 -3.09827,3.42041 -4.8783,4.9483 -3.58557,3.07776 -5.49146,7.75329 -6.13354,12.43481 -0.642,4.68152 -0.14527,9.43573 0.352,14.13483 0.26819,2.53455 0.621,5.26215 2.362,7.12366 2.42676,2.59485 6.49921,2.4945 10.03992,2.20215 q 6.17048,-0.5095 12.34094,-1.01893 c 2.21759,-0.1831 4.744,-0.2608 6.32276,1.30719 0.946,0.93952 1.34631,2.29889 2.1781,3.34082 a 5.12886,5.12886 0 0 0 6.25751,1.26166 10.38827,10.38827 0 0 0 7.83685,15.39136 l 0.317,0.2 c -2.63361,4.50989 -5.36609,9.57385 -4.274,14.68091 0.9364,4.37891 4.563,7.88965 5.156,12.32813 0.54413,4.07226 -1.58062,8.23693 -0.64062,12.23645 0.9519,4.05017 5.04217,6.8739 9.19177,7.17535 4.1496,0.30145 8.22656,-1.53937 11.4408,-4.18109 3.21424,-2.64172 5.69964,-6.04419 8.14868,-9.40759 1.51221,-2.07679 3.0628,-4.2381 3.582,-6.75415 0.55243,-2.67719 -0.088,-5.64423 1.21381,-8.04792 1.50134,-2.77209 5.06518,-3.81115 6.86407,-6.40008 2.32935,-3.35248 0.957,-7.91815 1.47192,-11.9679 1.27426,-10.02192 14.008,-16.26801 13.71851,-26.36659 z"
       transform="translate(-250.85824,-145.71065)"
       fill="#e6e6e6"
       id="path88" />
    <path
       d="m 587.72838,455.89007 c -0.34838,1.56482 -1.81353,2.59509 -3.20977,3.38275 -1.39624,0.78772 -2.93177,1.58234 -3.64313,3.01892 -0.72858,1.4715 -0.39569,3.22492 -0.0145,4.822 q 1.18945,4.98359 2.8017,9.8534 a 100.33947,100.33947 0 0 0 5.44556,-12.18695 16.01347,16.01347 0 0 0 1.195,-4.88611 6.04235,6.04235 0 0 0 -1.64319,-4.61749 z"
       transform="translate(-250.85824,-145.71065)"
       fill="#e6e6e6"
       id="path90" />
    <path
       d="m 673.418,438.46 q -2.62455,-3.02985 -5.249,-6.0597 c -1.1966,-1.38134 -2.56116,-2.8565 -4.37415,-3.087 l -0.74646,0.47681 q 2.27564,5.41845 4.55133,10.83691 a 10.28934,10.28934 0 0 0 2.74817,4.32263 c 1.358,1.06708 3.55988,1.272 4.6925,-0.0318 a 3.48,3.48 0 0 0 0.41144,-3.452 A 10.25283,10.25283 0 0 0 673.418,438.46 Z"
       transform="translate(-250.85824,-145.71065)"
       fill="#e6e6e6"
       id="path92" />
    <path
       d="m 690.37206,442.32782 a 5.03,5.03 0 0 0 2.97394,-2.77222 14.91,14.91 0 0 0 1.0639,-4.03748 q 0.44851,-2.713 0.897,-5.42608 l -0.39106,-0.10059 a 1.74231,1.74231 0 0 0 -2.20874,0.61285 8.65307,8.65307 0 0 0 -0.9898,2.31177 2.80065,2.80065 0 0 1 -1.5987,1.838 c -1.40448,0.42383 -2.73468,-1.06463 -4.20062,-1.00653 a 2.64077,2.64077 0 0 0 -2.29419,2.35492 5.11967,5.11967 0 0 0 0.95972,3.36377 c 1.25022,1.94063 3.57017,3.50013 5.78855,2.86159 z"
       transform="translate(-250.85824,-145.71065)"
       fill="#e6e6e6"
       id="path94" />
    <path
       d="m 700.04625,445.75689 4.03217,-10.62018 a 10.35765,10.35765 0 0 0 -4.03217,10.62018 z"
       transform="translate(-250.85824,-145.71065)"
       fill="#e6e6e6"
       id="path96" />
    <path
       d="m 720.6245,437.19567 -0.81537,0.0346 a 5.26048,5.26048 0 0 0 -0.0444,4.65735 10.49593,10.49593 0 0 0 3.042,3.69788 21.36911,21.36911 0 0 0 6.71094,3.74725 42.70678,42.70678 0 0 0 11.0271,1.69836 q 3.202,0.20957 6.404,0.41907 c 1.01672,0.0665 2.33209,-0.0624 2.61475,-1.04132 0.23346,-0.80847 -0.45539,-1.56842 -1.09833,-2.11133 a 40.2389,40.2389 0 0 0 -19.79022,-8.9823 c -2.7673,-0.42084 -5.70376,-0.59381 -8.05044,-2.11957 z"
       transform="translate(-250.85824,-145.71065)"
       fill="#e6e6e6"
       id="path98" />
    <path
       d="m 743.4099,465.38049 q -2.30273,-2.23307 -4.60553,-4.466 c -1.493,-1.44781 -3.72979,-2.98217 -5.44079,-1.8 -0.98346,0.6795 -1.28675,2.0047 -2.1203,2.86145 a 4.09448,4.09448 0 0 1 -3.79731,0.90417 12.0832,12.0832 0 0 1 -3.666,-1.73761 l -3.80951,-2.36389 q -1.97168,-1.2235 -3.94342,-2.447 l -2.96643,2.88293 c 0.129,-1.41876 -1.76264,-2.34051 -3.07221,-1.7796 a 4.74593,4.74593 0 0 0 -2.36285,3.37757 18.47208,18.47208 0 0 1 -1.13385,4.10675 c -1.50629,2.88354 -5.16333,3.73767 -8.38055,4.22064 -3.21722,0.48297 -6.86207,1.16315 -8.584,3.92334 -1.43427,2.299 -1.00464,5.251 -0.52533,7.918 l 1.81311,10.09 a 5.51461,5.51461 0 0 0 1.39374,3.29437 c 1.593,1.40594 4.0603,0.55115 6.00433,-0.30634 a 40.60143,40.60143 0 0 1 12.90418,-3.73993 18.62233,18.62233 0 0 1 12.785,3.2746 c 2.30572,1.75549 4.06409,4.18591 6.50677,5.74512 a 12.90664,12.90664 0 0 0 11.289,0.98529 16.80847,16.80847 0 0 0 8.58581,-7.65662 20.11323,20.11323 0 0 0 -0.43335,-19.91089 39.47733,39.47733 0 0 0 -6.44051,-7.37635 z"
       transform="translate(-250.85824,-145.71065)"
       fill="#e6e6e6"
       id="path100" />
    <path
       d="m 738.88335,506.4887 a 2.71231,2.71231 0 0 0 -0.17224,3.21546 4.4432,4.4432 0 0 0 2.83832,1.82709 13.19065,13.19065 0 0 0 3.45123,0.15808 l 0.0352,-0.86109 a 8.84169,8.84169 0 0 0 -2.0213,-4.07324 c -1.11219,-1.05713 -3.07746,-1.38171 -4.13117,-0.2663 z"
       transform="translate(-250.85824,-145.71065)"
       fill="#e6e6e6"
       id="path102" />
    <path
       d="m 778.41552,507.4093 -0.55011,-0.2013 q -1.96491,2.96155 -3.92969,5.9231 c -0.70483,1.06238 -1.44043,2.33819 -1.01044,3.53839 0.50891,1.42035 2.39045,1.83667 3.85175,1.4613 a 6.07688,6.07688 0 0 0 4.39441,-4.8233 5.96666,5.96666 0 0 0 -2.75592,-5.89819 z"
       transform="translate(-250.85824,-145.71065)"
       fill="#e6e6e6"
       id="path104" />
    <path
       d="m 788.402,501.14331 -3.61652,-2.87494 q -0.0724,2.0007 -0.145,4.00134 l -0.13568,0.002 a 26.56389,26.56389 0 0 1 2.3573,2.34418 c 0.8465,0.71966 2.26673,1.04888 2.99024,0.20568 a 1.89163,1.89163 0 0 0 0.078,-2.08746 5.55229,5.55229 0 0 0 -1.52834,-1.59106 z"
       transform="translate(-250.85824,-145.71065)"
       fill="#e6e6e6"
       id="path106" />
    <path
       d="m 723.06768,376.064 c -1.51746,-0.0475 -3.197,-0.13971 -4.373,0.8205 a 5.86674,5.86674 0 0 0 -1.009,1.17651 l -0.41473,0.58044 a 15.95522,15.95522 0 0 0 -1.61548,2.598 3.427,3.427 0 0 0 -0.21991,2.834 1.64326,1.64326 0 0 0 2.42517,0.69611 c 0.64856,-0.60083 0.49713,-1.6905 0.98742,-2.42621 a 2.2668,2.2668 0 0 1 1.82593,-0.87311 12.00736,12.00736 0 0 1 2.085,0.23572 10.05966,10.05966 0 0 0 9.8451,-15.37873 l -0.12213,-0.3728 a 4.49308,4.49308 0 0 0 -4.55744,3.51325 c -0.33948,1.76806 0.38007,3.822 -0.69177,5.26849 -0.90384,1.21976 -2.64777,1.37528 -4.16516,1.32783 z"
       transform="translate(-250.85824,-145.71065)"
       fill="#e6e6e6"
       id="path108" />
    <path
       d="m 736.65148,357.31939 -0.23114,-0.0201 a 11.73054,11.73054 0 0 0 -3.84827,1.4339 1.783,1.783 0 0 0 -0.87683,0.88934 1.29378,1.29378 0 0 0 0.30628,1.19037 3.8171,3.8171 0 0 0 1.02038,0.768 6.07359,6.07359 0 0 0 1.85443,0.82953 2.05854,2.05854 0 0 0 1.89307,-0.4892 2.73529,2.73529 0 0 0 0.44409,-2.26678 11.91924,11.91924 0 0 0 -0.56201,-2.33508 z"
       transform="translate(-250.85824,-145.71065)"
       fill="#e6e6e6"
       id="path110" />
    <path
       d="m 713.26232,376.51434 a 5.84546,5.84546 0 0 0 0.76141,-1.892 q 0.21231,-0.78077 0.4245,-1.56152 l -1.51257,-0.919 a 8.75981,8.75981 0 0 0 -1.98,1.41156 2.95428,2.95428 0 0 0 -0.90845,2.18781 1.80619,1.80619 0 0 0 1.48486,1.68554 1.98383,1.98383 0 0 0 1.73025,-0.91239 z"
       transform="translate(-250.85824,-145.71065)"
       fill="#e6e6e6"
       id="path112" />
    <path
       d="m 548.47674,235.85046 c -0.59833,0.37286 -0.42914,1.27417 -0.18647,1.936 q 0.41795,1.13966 0.83576,2.27924 l 0.38983,-1.47485 a 3.13408,3.13408 0 0 0 0.43115,-1.902 c -0.13495,-0.64827 -0.90832,-1.18861 -1.47027,-0.83839 z"
       transform="translate(-250.85824,-145.71065)"
       fill="#e6e6e6"
       id="path114" />
    <path
       d="m 926.14176,372.71065 h -253 a 23.02589,23.02589 0 0 1 -23,-23 v -181 a 23.02621,23.02621 0 0 1 23,-23 h 253 a 23.0262,23.0262 0 0 1 23,23 v 181 a 23.02588,23.02588 0 0 1 -23,23 z"
       transform="translate(-250.85824,-145.71065)"
       fill="#ffffff"
       id="path116" />
    <path
       d="m 926.14176,372.71065 h -253 a 23.02589,23.02589 0 0 1 -23,-23 v -181 a 23.02621,23.02621 0 0 1 23,-23 h 253 a 23.0262,23.0262 0 0 1 23,23 v 181 a 23.02588,23.02588 0 0 1 -23,23 z m -253,-225 a 21.02359,21.02359 0 0 0 -21,21 v 181 a 21.0239,21.0239 0 0 0 21,21 h 253 a 21.0239,21.0239 0 0 0 21,-21 v -181 a 21.02359,21.02359 0 0 0 -21,-21 z"
       transform="translate(-250.85824,-145.71065)"
       fill="#3f3d56"
       id="path118" />
    <path
       d="m 741.97641,173.26971 h -40 a 4,4 0 0 1 0,-8 h 40 a 4,4 0 0 1 0,8 z"
       transform="translate(-250.85824,-145.71065)"
       fill="#cccccc"
       id="path120" />
    <path
       d="m 828.97641,263.26971 h -127 a 4,4 0 0 1 0,-8 h 127 a 4,4 0 1 1 0,8 z"
       transform="translate(-250.85824,-145.71065)"
       fill="#cccccc"
       id="path122" />
    <circle
       cx="473.61423"
       cy="65.48819"
       r="26.818899"
       fill="#89928a"
       id="circle124" />
    <rect
       x="447.11838"
       y="193.94675"
       width="6"
       height="2"
       fill="#3f3d56"
       id="rect126" />
    <path
       d="m 880.14507,341.6574 h -12.5835 v -2 h 12.5835 z m -25.167,0 h -12.5835 v -2 h 12.5835 z m -25.167,0 h -12.5835 v -2 h 12.5835 z m -25.16651,0 h -12.58347 v -2 h 12.58349 z m -25.167,0 h -12.5835 v -2 h 12.5835 z m -25.167,0 H 741.7271 v -2 h 12.5835 z m -25.167,0 h -12.5835 v -2 h 12.5835 z"
       transform="translate(-250.85824,-145.71065)"
       fill="#3f3d56"
       id="path128" />
    <rect
       x="641.8703"
       y="193.94675"
       width="6"
       height="2"
       fill="#3f3d56"
       id="rect130" />
    <rect
       x="543.95679"
       y="158.55907"
       width="5"
       height="34"
       fill="#89928a"
       id="rect132" />
    <rect
       x="594.95679"
       y="158.55907"
       width="5"
       height="34"
       fill="#89928a"
       id="rect134" />
    <rect
       x="619.95679"
       y="177.55907"
       width="5"
       height="15"
       fill="#89928a"
       id="rect136" />
    <rect
       x="568.95679"
       y="143.55907"
       width="5"
       height="49"
       fill="#89928a"
       id="rect138" />
    <circle
       cx="89.956757"
       cy="220.55907"
       r="6"
       fill="#89928a"
       id="circle140" />
    <circle
       cx="105.95676"
       cy="191.55907"
       r="6"
       fill="#89928a"
       id="circle142" />
    <circle
       cx="281.95676"
       cy="168.55907"
       r="6"
       fill="#89928a"
       id="circle144" />
    <polygon
       points="153.281,597.466 157.586,562.559 144.229,562.56 144.231,597.467 "
       fill="#ffb6b6"
       id="polygon146" />
    <path
       d="m 394.77065,752.61813 27.82943,-10e-4 v -0.35195 a 10.83259,10.83259 0 0 0 -10.832,-10.83182 h -6.7e-4 l -5.0834,-3.85653 -9.4845,3.85712 -2.42933,8e-5 z"
       transform="translate(-250.85824,-145.71065)"
       fill="#2f2e41"
       id="path148" />
    <polygon
       points="221.281,597.466 225.586,562.559 212.229,562.56 212.231,597.467 "
       fill="#ffb6b6"
       id="polygon150" />
    <path
       d="m 462.77065,752.61813 27.82943,-10e-4 v -0.35195 a 10.83259,10.83259 0 0 0 -10.832,-10.83182 h -6.7e-4 l -5.0834,-3.85653 -9.4845,3.85712 -2.42933,8e-5 z"
       transform="translate(-250.85824,-145.71065)"
       fill="#2f2e41"
       id="path152" />
    <path
       d="m 394.73739,459.21654 16.0607,-2.30042 c 5.43182,9.08278 7.3621,33.25826 7.3621,33.25826 l 15.71788,37.3585 a 7.16306,7.16306 0 1 1 -11.16691,5.38 L 396.904,489.42915 Z"
       transform="translate(-250.85824,-145.71065)"
       fill="#ffb6b6"
       id="path154" />
    <path
       d="m 403.44223,414.62858 v 0 a 17.118,17.118 0 0 0 -13.523,22.61171 l 3.40824,9.66029 c 0,0 -4.29325,29.08717 2.78218,37.29777 l 21.71116,-1.96535 c 0,0 -3.96951,-14.6749 -0.922,-21.77514 1.86635,-4.34834 1.76268,-19.36689 -0.0763,-31.58417 -1.40424,-9.32894 -4.05742,-15.68893 -13.38031,-14.24511 z"
       transform="translate(-250.85824,-145.71065)"
       fill="#3f3d56"
       id="path156" />
    <path
       d="m 478.315,502.26971 c 0,0 16.73494,16.32076 13.16113,20.09035 -3.57381,3.76959 -11.74844,9.04976 -4.16113,9.90968 7.58731,0.85992 10.73494,2.72411 4.16113,4.292 -6.57381,1.56789 -5.55782,5.59391 -5.55782,5.59391 0,0 9.89669,47.114 2.39669,78.11407 0,0 -4.17409,84.67176 -6.79339,91.26584 -2.6193,6.59408 -3.6193,2.59408 -2.6193,6.59408 1,4 3,-3 1,4 a 92.51753,92.51753 0 0 0 -2.58731,11.14008 l -19.56229,-3 c 0,0 -3.14961,-9.92748 0,-12.53378 3.14961,-2.6063 5.97493,-1 2.56227,-6.80315 -3.41266,-5.80315 -4.41267,2.19685 -3.41267,-5.80315 1,-8 -3.17468,-51.26764 3.41269,-74.13384 L 448.14169,566.833 428.815,633.26971 c 0,0 -10.25127,81.14015 -13.582,84 -3.33073,2.85985 -8.33071,-2.1401 -3.33071,2.8599 5,5 4.91269,4.14005 5,5 0.93127,9.17239 -27.69836,-0.85992 -27.69836,-0.85992 a 51.364,51.364 0 0 0 0,-7 c -0.30164,-2.1401 3.30164,-2.825 0,-4.98253 -3.30164,-2.15753 1.61105,-0.0175 1.61105,-0.0175 0,0 7.383,-59.85992 13,-78 l 6.5,-88.33656 c 0,0 0.41266,1.76217 0,-2.52066 -0.41266,-4.28283 -3.41267,-1.28283 -0.41267,-4.28283 3,-3 5,-4.52869 3,-6.76434 -2,-2.23565 -7.5172,-6.75864 -4.2586,-9.49715 3.2586,-2.73851 9.67123,-20.59846 9.67123,-20.59846 l 62.50006,0.5"
       transform="translate(-250.85824,-145.71065)"
       fill="#2f2e41"
       id="path158" />
    <path
       d="m 454.816,403.09591 -11.26937,-12.68925 -17.807,1.97855 -11.40059,15.9549 v 0 a 24.33935,24.33935 0 0 0 -18.5282,27.87941 c 4.42411,25.475 19.459,50.18273 14.49451,62.75218 -7.53591,19.08011 -7.99572,26.86185 10.04336,24.18682 18.03908,-2.67503 78.47367,-8.84181 66.75676,-20.55872 C 475.38856,490.88289 472.815,471.3035 472.815,471.3035 l -0.46985,-44.79438 A 19.90867,19.90867 0 0 0 454.816,403.09591 Z"
       transform="translate(-250.85824,-145.71065)"
       fill="#3f3d56"
       id="path160" />
    <path
       d="m 451.73739,452.21654 16.0607,-2.30042 c 5.43182,9.08278 7.3621,33.25826 7.3621,33.25826 l 15.71788,37.3585 a 7.16306,7.16306 0 1 1 -11.16691,5.38 L 453.904,482.42915 Z"
       transform="translate(-250.85824,-145.71065)"
       fill="#ffb6b6"
       id="path162" />
    <path
       d="m 460.44223,407.62858 v 0 a 17.118,17.118 0 0 0 -13.523,22.61171 l 3.40824,9.66029 c 0,0 -4.29325,29.08717 2.78218,37.29777 l 21.71116,-1.96535 c 0,0 -3.96951,-14.6749 -0.922,-21.77514 1.86635,-4.34834 1.76268,-19.36689 -0.0763,-31.58417 -1.40424,-9.32894 -4.05742,-15.68893 -13.38031,-14.24511 z"
       transform="translate(-250.85824,-145.71065)"
       fill="#3f3d56"
       id="path164" />
    <circle
       cx="178.8882"
       cy="222.08022"
       r="21.52319"
       fill="#ffb6b6"
       id="circle166" />
    <path
       d="m 425.788,388.86014 c 5.99442,-1.50178 6.19847,-3.21485 12.19289,-4.71663 1.90868,-0.47818 4.12018,-1.2315 4.68591,-3.11608 a 4.53926,4.53926 0 0 0 -1.07805,-3.90077 36.89886,36.89886 0 0 1 -2.64988,-3.25694 6.53728,6.53728 0 0 1 4.51213,-9.79172 c 1.85435,-0.31734 3.76635,0.174 5.63258,-0.0637 2.55941,-0.326 6.324,-9.822 4.68325,-11.81313 -1.59713,-1.93821 -4.21871,-3.09463 -5.0994,-5.44662 -0.576,-1.53832 -0.26112,-3.25839 -0.5177,-4.88085 -0.38043,-2.40566 -5.24841,4.255 -4.60047,1.90725 1.58942,-5.75926 -25.30386,-6.66626 -28.1036,0.72241 -1.04637,2.76146 -3.87916,3.20024 -6.05806,5.19349 -1.42808,1.30639 -4.8437,5.487 -5.33893,7.74 a 16.33179,16.33179 0 0 0 0.23157,6.86328 c 2.23354,10.526 5.92516,19.85478 15.75147,24.23986"
       transform="translate(-250.85824,-145.71065)"
       fill="#2f2e41"
       id="path168" />
  </g>
</svg>
